<mxfile host="65bd71144e">
    <diagram id="JzL--zYBJRQXUp3qxDGD" name="Page-1">
        <mxGraphModel dx="1621" dy="545" grid="0" gridSize="10" guides="1" tooltips="1" connect="1" arrows="1" fold="1" page="1" pageScale="1" pageWidth="827" pageHeight="1169" math="0" shadow="0">
            <root>
                <mxCell id="0"/>
                <mxCell id="1" parent="0"/>
                <mxCell id="4" style="edgeStyle=none;html=1;entryX=0;entryY=0.5;entryDx=0;entryDy=0;" parent="1" source="3" target="5" edge="1">
                    <mxGeometry relative="1" as="geometry">
                        <mxPoint x="270" y="345" as="targetPoint"/>
                    </mxGeometry>
                </mxCell>
                <mxCell id="3" value="Digital to Analog" style="rounded=1;whiteSpace=wrap;html=1;" parent="1" vertex="1">
                    <mxGeometry x="59" y="318" width="70" height="60" as="geometry"/>
                </mxCell>
                <mxCell id="7" value="" style="edgeStyle=none;html=1;" parent="1" source="5" target="6" edge="1">
                    <mxGeometry relative="1" as="geometry"/>
                </mxCell>
                <mxCell id="5" value="VMM Core" style="rounded=1;whiteSpace=wrap;html=1;fillColor=#f8cecc;strokeColor=#b85450;" parent="1" vertex="1">
                    <mxGeometry x="200" y="318" width="120" height="60" as="geometry"/>
                </mxCell>
                <mxCell id="9" style="edgeStyle=none;html=1;entryX=0;entryY=0.5;entryDx=0;entryDy=0;" parent="1" source="6" target="8" edge="1">
                    <mxGeometry relative="1" as="geometry">
                        <mxPoint x="600" y="345" as="targetPoint"/>
                    </mxGeometry>
                </mxCell>
                <mxCell id="16" style="edgeStyle=none;html=1;entryX=0;entryY=0.5;entryDx=0;entryDy=0;exitX=1;exitY=0.5;exitDx=0;exitDy=0;" parent="1" source="6" target="5" edge="1">
                    <mxGeometry relative="1" as="geometry">
                        <mxPoint x="490" y="235" as="targetPoint"/>
                        <Array as="points">
                            <mxPoint x="500" y="348"/>
                            <mxPoint x="500" y="228"/>
                            <mxPoint x="150" y="228"/>
                            <mxPoint x="150" y="348"/>
                        </Array>
                    </mxGeometry>
                </mxCell>
                <mxCell id="38" value="" style="edgeStyle=none;html=1;" parent="1" source="6" target="12" edge="1">
                    <mxGeometry relative="1" as="geometry"/>
                </mxCell>
                <mxCell id="6" value="&lt;b&gt;Analog&lt;/b&gt; Activation" style="rounded=1;whiteSpace=wrap;html=1;" parent="1" vertex="1">
                    <mxGeometry x="360" y="318" width="120" height="60" as="geometry"/>
                </mxCell>
                <mxCell id="20" style="edgeStyle=none;html=1;" parent="1" source="8" edge="1">
                    <mxGeometry relative="1" as="geometry">
                        <mxPoint x="687" y="348" as="targetPoint"/>
                    </mxGeometry>
                </mxCell>
                <mxCell id="44" style="edgeStyle=none;html=1;entryX=0.5;entryY=1;entryDx=0;entryDy=0;exitX=0;exitY=0.5;exitDx=0;exitDy=0;startArrow=none;dashed=1;" parent="1" source="45" target="5" edge="1">
                    <mxGeometry relative="1" as="geometry">
                        <Array as="points">
                            <mxPoint x="260" y="418"/>
                        </Array>
                    </mxGeometry>
                </mxCell>
                <mxCell id="47" style="edgeStyle=none;html=1;entryX=1;entryY=0.5;entryDx=0;entryDy=0;dashed=1;" parent="1" target="45" edge="1">
                    <mxGeometry relative="1" as="geometry">
                        <mxPoint x="660" y="348" as="sourcePoint"/>
                        <Array as="points">
                            <mxPoint x="660" y="418"/>
                        </Array>
                    </mxGeometry>
                </mxCell>
                <mxCell id="8" value="ADC" style="rounded=1;whiteSpace=wrap;html=1;" parent="1" vertex="1">
                    <mxGeometry x="530" y="318" width="120" height="60" as="geometry"/>
                </mxCell>
                <mxCell id="10" value="input" style="text;strokeColor=none;align=center;fillColor=none;html=1;verticalAlign=middle;whiteSpace=wrap;rounded=0;" parent="1" vertex="1">
                    <mxGeometry x="-4" y="348" width="60" height="30" as="geometry"/>
                </mxCell>
                <mxCell id="11" style="edgeStyle=none;html=1;" parent="1" edge="1">
                    <mxGeometry relative="1" as="geometry">
                        <mxPoint x="59" y="347.73999999999995" as="targetPoint"/>
                        <mxPoint x="19" y="347.73999999999995" as="sourcePoint"/>
                    </mxGeometry>
                </mxCell>
                <mxCell id="39" style="edgeStyle=none;html=1;" parent="1" source="12" target="6" edge="1">
                    <mxGeometry relative="1" as="geometry"/>
                </mxCell>
                <mxCell id="12" value="ADC to &lt;br&gt;&lt;b&gt;Digital&lt;/b&gt; Activation to DAC" style="rounded=1;whiteSpace=wrap;html=1;" parent="1" vertex="1">
                    <mxGeometry x="360" y="238" width="120" height="60" as="geometry"/>
                </mxCell>
                <mxCell id="21" value="output" style="text;strokeColor=none;align=center;fillColor=none;html=1;verticalAlign=middle;whiteSpace=wrap;rounded=0;" parent="1" vertex="1">
                    <mxGeometry x="670" y="348" width="60" height="30" as="geometry"/>
                </mxCell>
                <mxCell id="24" value="repeat" style="text;strokeColor=none;align=center;fillColor=none;html=1;verticalAlign=middle;whiteSpace=wrap;rounded=0;" parent="1" vertex="1">
                    <mxGeometry x="260" y="198" width="40" height="20" as="geometry"/>
                </mxCell>
                <mxCell id="35" value="" style="shape=image;verticalLabelPosition=bottom;labelBackgroundColor=default;verticalAlign=top;aspect=fixed;imageAspect=0;image=data:image/png,iVBORw0KGgoAAAANSUhEUgAAAfcAAAC0CAYAAACJzmVRAAAAAXNSR0IArs4c6QAAAIRlWElmTU0AKgAAAAgABQESAAMAAAABAAEAAAEaAAUAAAABAAAASgEbAAUAAAABAAAAUgEoAAMAAAABAAIAAIdpAAQAAAABAAAAWgAAAAAAAABIAAAAAQAAAEgAAAABAAOgAQADAAAAAQABAACgAgAEAAAAAQAAAfegAwAEAAAAAQAAALQAAAAARGFz6wAAAAlwSFlzAAALEwAACxMBAJqcGAAAQABJREFUeAHsvQd8Vded7/sH9YoESEiAQKL33osBG/cWx3FJ4sR24sRJZjI3kxm/m+TNu/cz777MJJMpmUkm1UkcJ65xrxgXDAZM770jijqooQri/b5L3uZwkEBdR2IvPodztMvaa/33+veyepxXM7/5EPAh4EPAh4APAR8C3QYCPbvNTPyJ+BDwIeBDwIeADwEfAg4CPnP3F4IPAR8CPgR8CPgQ6GYQ8Jl7N3uh/nR8CPgQ8CHgQ8CHgM/c/TXgQ8CHgA8BHwI+BLoZBHzm3s1eqD8dHwI+BHwI+BDwIeAzd38N+BDwIeBDwIeAD4FuBgGfuXezF+pPx4eADwEfAj4EfAj4zN1fAz4EfAj4EPAh4EOgm0EgvJvNJ2SmQ22gc+fOWWCNoLCwMOvZs16e4nhdXZ37eIMOPO8da8o3ffXo0cNdGvhcnkWfXal58GI+7T0X+vfeAc8DVh4cuxLM/LF2PQiw7qAPV2oeTeBa7mnvdQpONBUHzp4963AUOsOnqfddac6cb2/cb8oYuvo1PnNvpzd45swZ++CDD+z48eNu4cfGxtqCBQts8ODB7omVlZW2fv1627Fjh2MqkZGRNnXqVJs4cWKTRwSy0w/PSk5OtoiICCsuLrZly5ZZfn6+jRo1yubPn98lGDzIXFNTYxUVFQ5evXr1spycHFuxYoWbH3CZMmXKp8JRk4F0mQuB29atW2379u2WkZFhs2bNsj59+lzmDv+UD4G2gcDRo0dtzZo1VlJS0mCH4EN0dLQtWrTI0tPTbeXKlbZv3z5HP+bMmWNJSUkN3tfSgzyvtrbWTp8+7fqOioq6bFfQnffff9+ys7NtxIgRDnfi4+Mve09zTtL/O++842jA2LFjbebMmQ4ezenjar/WZ+7ttAJA2qeeespWrVrlmCvMCun74Ycfdk8sKiqy3/zmN/bhhx9aeHi4cf5v/uZvmszckZoPHDhgL730kp06dcp+8IMfWO/eva2wsNCefPJJ27Ztm911110O6UJde4ewMO63337bNm7caHfeeadde+21jnAAo5MnTzq4weA9y0dbvLbS0lJbunSp/eEPf7C5c+faoEGDfObeFoD1+7giBPbv32+//e1v7eDBg07jBQf4eA3BHZqQmprqmO1rr71mr776qs2bN8+GDRvW5swdHHvmmWecMgIdGjJkiDeUBr9hvlwP/brttttszJgx1pbMvby83NGxdevW2b333mvjxo3zmXuDb6Lxgz5zbxw2rTqDiQpNGo0c5g2y7t2710nHMCiY2ZEjRywmJsYxLK4LZsIgO/d5LdD0hWb++OOP2wsvvOCke85xfeBzeT6NPrxzDTHHwOcEPsN7Lue9++m/of6a0kfgXOjHGwsa9HvvvWc/+clPHDGDWNAfxALrQ9++fa1///6XmP28cTDOhsbN8cBxBV/HGHg3aCnAir/95kOgIyDAevXow4ABA6xfv35uLbJeaXxj7WPtsy6hDR4tCV6ngWu8MTygz8bwBY0dQePpp592TNRzJ/Ic+ubjPZM++A3eDB061BCQMzMz3Vx4htcae5Z3nu/AcfN34Nh5BvABN3mW35oPAR9qzYdZs+9goXqaNkw9MTHRkNzR3lnQLPLAxt9IxjBwPiAfiJ6WluaQnWuRtPmw8Ln28OHDDsm8fjxkhHFyrqyszFJSUhyT9ExuPMczxdEXY0RTgNBwjTduTHWY++Pi4hzDZUz8jQkbkyHXMS/M6IwHEzduAm9u9Mv1J06ccCZ2kJaxcC/XAwfMlIyFMdEPz6Cfb37zm1ZVVeXm7gk/EA7mVVBQ4J7L84PH7c0NqwZzA0YQR64Djvz2mw+BzoYAaxlh9gtf+MJFViPWL411iquqocY11dXVlpeX5/AFvAKnMNlzn0cDYNbgC9eBa1yHsIylD/zDdQiOcD2uMUztCBUJCQmuX+7lWrRp+uA393/xi1+0m2++2f0NTaN5zwKHwT3GMXDgwE/dhjzDGzfXgMPgPS4IhBz6Znx+az0EfObeehhetgcYHEjiISFMHRPWrl273DEYJMzLQ2a+YWxI0a+88opjXjBHNHzMcV/60pec6f53v/udM2HD8DDBP/bYY+4c5mUaRAOz/T/+4z863x4EAuT57Gc/aw888IATFpC68ZthxkcAADG55oYbbnCICxOEsf/5z3+2559/3kaOHOnOL1++3DFrkPamm25yjBoT3RFZIkBmYgv++q//2pn2IAz4zX//+9+78TBXCAoCxC233OJcBx/KtPfcc8+5MYPwP//5z23Pnj3uPPOE8Nx99932la98xREg5vXss8+6sUNAIBiM+9Zbb7X77rvPMXDP5M7YGRfPZWwQJcz+999//2Xfm3/Sh0BHQQAcBu/Bv8DmCbOBxwJ/I1BDJ9566y0nOMMUEYhhuuAwTJ5+iev54x//6GJ8YO7gH/gCLVm4cKH96le/cue4Fjrw93//985FuHjxYvvnf/5nR18wiyMEHDp0yPCBf//733fPXrt2resDfEcg2LRpkz3xxBO2efNmRyN4FnFGDz74oBsTtBBFA7x+8803nbCAQAFzh548+uijxnP91noI+My99TBstAeQBeaOLxdmA9OGEfM3CMeChmGDNJ50zjeBeCAcLVMmL6RikArEgQB873vfc4wK5OdvT0KHodP4G2mYZ8HYkOaRkAnIgRjgTyPQjniAH/3oR07CBrG854CcMMO/+7u/c/0TP3Ds2DEn9WMqhzF7wgPjZB7cC+NEA0dgQEP+27/9W8ekf/GLX7j5QlCGDx/u+oGIILxAECBKzIVxex9gh7YNs0fjB34cA1YICn/5y18+tWYwVxg+46YfhIAtW7a4mAZ8msyN5wJ/YPDiiy86gkOAnt98CHQmBKAPCL+sc8+ixnjA6/Hjx9v111/v8Ct4jCgLrHeEV35jIodJIhT/+Mc/dvdwL5r2v/7rv9rHH3/sLG/QHqxouAj//d//3dEnnsU4PNzj2xsDOEMfjA/hmGvpAzqAcOHRBY6Da//0T//kglSJF8gU7eIaaB1jQitH+QDvETYQ/Bk3tIN7uY4Ym0mTJjllJnjO/t/Ng4DP3JsHrxZdjQQNg8HcBfJ5UjBS7OjRo51m6nUM04TZwXxhfATgwTyRdP/0pz85qRcm99WvftUh6erVq23ChAmO4YN0SOZe45nf/va3XaQpPu1/+Zd/cffD4NDCCWAD+WByCAwwbTRofPkwfogDfYL4fDC1Yz78zGc+43zk//Ef/+FM+UjyCAIQGZ4BkoL0IC/MlmdlZWXZjTfe6AL8iOZHI0CQgWmjlUNEeC7WAuaG9I4AAKFB+uf5EJCdO3e6bACICxo48OFZMHzmhRADDCBEjAsCiekQGKEp/PSnP3XPZd5+8yEQChAgWwNNF7z2GgLr7bff3miUODiGUICpHPz52te+5nAFJgp+EWlOACrfWAkRHL7xjW84XNi9e7chcIMDfMAhhHloBHj63e9+1yZPnuyEa4/pw6x5Blo413huN3ATHKe9/vrrTsgGNxHsifQnQJZnQQtQNKZNm+bGQvQ7fSKI46KDbhAwCO6iTGCp9FvrIOAz99bBr0l3s1AxxS9ZssQxIJCSBYxkC+MjYttrMHyi3BfKXIYJH8RHAydqFESC+cPkkIJBIggCvnAQDgkY5OAY1xKMBpPkOpgc50EyCAdEAWsATJDzMFcYI4IFhIB+eD7MnQaTRTMnih0NHO2feeEymD59uhMQYMYIFKSX8QzugcBwLdo3yI2msWHDBicIILQwH8YFgnM944HBI2hgBfAa5yBAnhYPkSFymL698SAsYDGgP/pg/mj6PBfBiNRDxgV8gKHffAiEAgSwKrGeWfteY52SGgtuNtTAXVxm3AP+ozSAT/wGf7FkgcMoFOAFeAJNyRTNwXSPxgxTBu+43nsOfYDzKCQI6x6uoIQgJHM/jWdzjgZuMl6exT0oL7jmeA5WQ2gcz+BZjO9zn/ucUxzQ1hE8ENixtEEL6BMLhNev++H/1yII+My9RWBr3k0wTMzvSKowG5g8DUSBCbGovQazRLLG3I0/C/8UTBQkBom8D9d7yOUhoNcH30jcICzP9v7mXq+BjPTN88i35eNdx73cBzMNbIyBPgPHAIEAYWkc96R4/mZcmPMwoWOKw7zHeebDOa7nWZ7A4t3jzYu/vca13phhzBAhggxpjAsiwnH651oEA6wQaOtoJwg7EBga5/n4zYdAZ0OAtU/sCX5yBPaGGoJ4cEM5gAmCv8S78AFvwFvWNv1iFeM6foO34AANHMmSMsD1/AavuKaxxnUIzeBZQ43nQSt4Hv0gXNMvjWciSNA83EQQ8egbLgLw2Lue6+iPZ/LxW8sh4DP3lsOuSXeyQGFgSMMwIMxpaMkgGxI7DD9wESNto2W+8cYbDgEfeeQRp3Vj3iLQjEZ/DbXAfhq7jmv4eMyOb0xlmLj5DaKDqIwPaT2wgXTBz+YYn+DGMYgPbgNM5tyHmRHpH4Lzn//5n+47+D7+9sYYeI5jEC7GBSFAG4EwQEwYLwIRDB2ihdZP3AKBgp6mgAUDrR8TIQSxoTEHPs//7UOgoyCAUMqabMia1Ng69RgiOIulDwsZwit44TFYFAosgeALuOKdA8dxu2HFy5SCgYYd2MC1wMbf9B2M+9413nlwk2ugYcTLcBxNngBcnon1AMseaXcEAaLYEIiHBe7dd991dI8+G3uO9zz/u2kQ8Jl70+DUqqtYrJi5MBNjZudvmA6m+mDkBQGRbJGSMWfdc889DjFzc3MdgjAQkJf76AcEAkk5H9zX5QbN82GEmPfoD0aOHw2k/1DR6zw7mLlfrr/gc4wFBIfhYiFgrvjwMdnBeGHwXMP4vbnwjUCApo3ZD4LnNY+AYIJHIMIKgLUBvzq/f/3rX7tx8wz8eFhIeD7PxdcPocNUiXYBYWTOfvMhEAoQwLqFaZp1HdxwhWHpCm6Y8cFXXGnQCuJmYK4Eqh2RG4q/YcgoFdxPXMpHH33kngFOUlMCkzhZIzBYT6uGlqB8YEL36AzP9s4Hj4O/PdzkWVjUeD4V9fgNLSO+BpcdigoFaTiPIANuIuyTMQQOg+/05eNmQ1Bu/jGfuTcfZs26g8XKBwRjMXtSKSY4GCipXN41dOyZmNHw0dZJOeG853OH+SGFY+qCGIAkEAYC4u644w7n6/L649trgb85RrAe2iwR+ATzkEoHQqMBMyYkbgLnaA315x13FwT8F3gtmjaICzOFoPzyl7901guICgwfAYNvGoSJuSOkcB3jmDFjxqcCDP2ipSBwIOkTvEPVLuACUSBdDtMhgXMILQhTEBfiBn72s585QgicEJ4YF0TMI17emAOm4f/0IdAhEIAeoMWSYYJw6zXWJH9/61vfcmZ7fnPMa2jqxLqw7sn+IPodPAC3EGo9dx8xMljPiHPxNGboBwI0+D579myHo+AfeAHjhZZ8+ctfdgFxPC/wud7zPZzhGzziGyGaZzGG//qv/3LjQvhAUGc8PAu6w3PBTXCXSH60emgQ48cK59GExp7tjcH/vjwEGrbvXv4e/2wTIADSYhKDycDcYFzUYMYE5mnxMCOuw0cFo0bShhmiraORsuhJYSHw5JprrrFMmdBoBK6AjNRCR4IH8ZF8QVokbK8/BAqPYMAYGQ/nQCzuh7kjtdMH2gPCBNdDECAqCB+Mj/EzZu7hbxqEgL74MG4a52DY3pz5TR1stGmP0SJMAAPGTh8gP4wW2BChC5zQ6pkPgkzgmBlbpmDw0EMPORM/40EYwAxInwTqkMcPXAnoWagAIuYNsUFYQnvHBQGMuAdGD4yAPX1x3G8+BDoCAqx91raH9x6ThFF6zNL7Zt17OAhOsU5Zr2SVsN5hlgiuCMT0hzZODjt4AA5TCIrsG3AQ2gG+gfNf//rXHV2hbwRpzObgH4wf7R1my3PAZ/DEw33gw5gYC8/jm3ME7ZKd4+E2ggLMmn6hMzzDo28I6fSBNQGLGriK5k8/jDH42Vzrt+ZBoIcW1QVxsHn3+ldfBgIwJkxhSKFo6TAfJGrMUyxcFjkmZhgMSAAi45NHsuU8/mFMWrwetHR8VfTH9V5/aNcgBloxSMZ1nPMQmN/cB8KA0DwHTR9iwLNojBPpn3sQDjhHLADjoCFgwGhBdogRRAHCxLx4Lg0fN4SE8SAk0A/jYc4QIiR3GCxMm+eiWXvPhTAwRk9rZ87AgmsYP8yfaxkX0r+H5DwfoYfnMT/GlSnGDwGj0QcMHIJHQBLPgHgAB+aCUMK4MdN7c2NsEDq/+RBobwiw7sA7mF9jjbXOmsT8zrXgETgI3fDWOfTAywgBT1jnCMrB6xiGDf6DLzBqz/8N3tHAF6xc4BT3QkugAfQN/oB/4Au4T4NGgf/gIcwf94HXF/gEnYNugN8I1YwZQdtrjIXUVZ7LWMBNj27xLJ4NvePZ0Er6D7zf68f/bhwCPnNvHDb+GR8CPgR8CPgQ8CHQJSHgm+W75GvzB+1DwIeADwEfAj4EGoeAz9wbh41/xoeADwEfAj4EfAh0SQj4zL1LvjZ/0D4EfAj4EPAh4EOgcQj4zL1x2PhnfAj4EPAhcBEECCQjKJPvq60RXEuAW0PFdro7LAgW5r13pfhzn7l391Xpz8+HgA+BNoMAWSxssEIU+dXWiF6nnDN1MK62xn4ZbLRFRkJXaT5z7ypvyh+nDwEfAp0OAVLSKDgDk7/aGsydgjuk5F1tjcqi7AmCBt9Vms/cu8qb8sfpQ8CHQKdDgJoK5Ft79RY6fUAdOADmTJ771Tj3rvjefebegcjhP8qHgA8BHwI+BHwIdAQELpQM6oin+c/wIeBDoMtCoPpsnZVUnrXqc6p7rllQ2jI2UuWTo8ItIqy+PGh59TkrrTpn5+rYDdGsV3S4xUVpG94uO2t/4D4EuiYEfObeNd+bP2ofAh0OgRMlNfbGziLbcKzMKmu0R3hUT7t2eLLdNLq3pcRHOGa/7eQZe2VboR09XWX9EiPt3knanCRT+3v39Nl7h78w/4FXNQR8s/xV/fr9yfsQaDoE+iVE2JSB8VYh7fz1rfl24lSVpfeKtITo+g13YN9D+6q2f4/ztjP3jPWNi7DM3tHWU75av/kQ8CHQsRDo0po7OYdsvED0ppd/GBjs4R1j8xI2MmHDBL/5EPAh0DIIxEWG2bwhvSyntMb25SjXW6Z3zPFRYRd0hHiZ4PncNKq3fX5Kqg1MimrZw/y7fAj4EGgVBLo0c6eYAlt5/v73v3fMm0hOdkniw1aFMHN2YqPgBNsgzpw5s1XA8m/2IeBDwGxqRoJNGZxgS3afsnVHS6XNJ1iCGDptp5h+9qlqmyshYLC09s5qlWer7VRVqXz/ddYnJtFiI6Ll9786LAhlNRVu7uE9w6xvTJKEr/qd3Fr7LgIVp9b21V73n64q09zLLD4y2s09rMcFwbM1z2TuXWH+gXNsNXOHcbK1H9+ephz4AH6zhSBbgjaledo42wY21J8HZG9fcvYxXr58uT3yyCNu60FyEd944w279957bdGiRW5L1HfeecdGjRp1CXP3tgWl8hD9Bj+PYwgIbEHY1V5sU2DtX9MyCCAwsq1tQzmvrBMsRd5e9y17QmjfNTg5yuYMTbIVB4rt44MltnhEb5ssc32tNPl12WUWGa69vdPjLPKTILsrzYbCIFjgwMe2aHXy/q8v2mfP719mZbUVdu/wRTa331iL6VG/vWlrnoHiQKU2aAZrINTaWauzJSc22MsHVijQMc6+MuYWG52YYeHWeibnKUps8xqKc6+2s/an/e/a0iPrbWxKln1jzO2WGpnUJiIduM57Z9vqhir0kSqHQsl3qLRWMXeYIS/5hz/8obFfcGNtypQp9r3vfa+x0xcdB8HZ5/fHP/5xoyUe2Tf4tttus8985jNOcHjsscfs4Ycfdlo65RGXLl1q8+bNswcffNAdmzp1qtt3+KIH6Q8Q9Mknn7S1a9cGn3J/Q6QnT55s3/nOdz7dq7jBC/2DVxUE2Pf6qaeeskOHDjUo9LG/9e2332633nprSCF7W70kguNmDEqwif3jbcuJM7bxeJmNSYu1kzLX78mvcH724SlNd4GxL/iWLVsc4WztGBGuqsPO2QvVm23VmT1Wc67ajp04bnujJlpaXfwlAnxzngfhZr/zPXv2uH3V2X+cFqwUNKfPtryW2IbT4dX2ePlHtq/yuNh8nRUdz7frwkZafJ0CHkWvW9qY+969ez9VllDWWtNfS8fR2H09paEfjSixn59+105Vl9h7xzZY5ZFTNqVugIXVSXFz4Z6N3X3548wdHgG+v/baaw3yAnAefA8l12+rmDsggUG+/PLLzhQ+dOjQBqGUlpbW4PHGDiIdQ0CxBgRqzCwmpMacnBzLyMiwe+65x2njSEw0znMPzdMCoqOjnQbPfcENbeGjjz5ylYcYe1TUBf8gfWHm79ev36d9Bd/v/311QoD1SbWuAwcOXLI+i4qK3BpkPd1yyy3dFkCjUmNttrT3NTLLrz5YbAv0e8uJchdFP6F/nPWKaTppIWZm9+7dVlBQ0HphSHhbG93TylPLLFz4W6fgvpPFBbbt9A7Lr4pt9fvASsk75t1D+0KqyXJSkShGlnLWIsKj7Nz5c3YwN9v6KHMhsVZWi1Z6JajOhzKHcJObmxtSUzfNvSjFLCopTO9ddFzvfceRPdbzdIFFnJfLqJVzp9wwZXepVIdyGdjQ5NPT0+2GG27oXsydScKA0c4ff/zxBqU5zPJNbUhJEydOtGefffaSvgDi+vXr7Zvf/KYzfaJZDx48+LJdMzaC6fgEN87xPISPX//61+47+Jq4uLiLmH7wef/vqw8CEyZMcJYlhMNA4ROBEkH3D3/4w0XHuyOEoiN62kz53UenxtgmmeI/knn+QGGlpSn9DS0+sNUqL75Y+fG15+osOTbCYnRvYJsxY4bxacv21uG19uTOJZZTVqBo/ji7Y/T1dkvWLEuSqbo1vnfoz3PPPWd33323zZ49uy2H3CZ9nZO2/oftb9tL+5fbmeoKpSP2tQfG32Fz+sstIYbfmrZ69Wp74oknDEvp8OHDW9NVu9xbfq7KfrL2aVt+bKsUslobPX6IfXPiZ21078FG/EFr2p/+9Cdbs2aN/ehHP3JWm9b01VH3Nl28vsKI0J4b09yvcOtFpyGWCAMN9YVW7kmMbWkSQmMfMmSI9e/f/6Kx+H/4EGgIAqzPhgRW1iQSPOVJ23J9NjSGUDiGhj49q5f9cV2ePbk+13rHhdvnlNfev9fFTKTwTK29uCXfTovBf3Ziio1Ni2v34d+cOcOm9RtpVedq7KPj22xZ9mYF152zW8XgeyvArqUMHgGOT6i+3zD51h8ae5PdnDVT2Qzn7C/7PrSn9rwnxbbO5vYf5wILWwp86K9nEW1pH+15X3xYtP1g5gP28NhbnNXiv7e8bL/e+po9OvGOVjN45t6Qr70959Pavi8WoVvRW0ct9vYAMGP3zPmtAIF/61UOAQgf67OjcKGzwY0WPkdR8QPFzFfJNE9K3Pj0eGlJF9tA0djR6vfmVUqbbJuguSvNHSUhNTbJBiWk2n0jF9lNYvYrjm+1Nw5/bEWVpRf5YKvO1qjqXm23eW9oqQPi+9rgxH72rYmfsfF9h9gzez6wlSe225naqk9Bhwe+Qn/X1ikY+tOjXftHVFikZfZKs6FJA+z/nvklrclw+9XWV21X0REn7HizqxPNL6+plBDQMevRe25HfrcZc+/IQfvP8iHgQyA0IEAa3OSMeOubEGlTFWSX1UD626DkaJug4LvkWFk0OmHYMLvPDJsnBj/TafFvHlpjBRUlVlpzxg4Wn7CPTmy1o6W5drYbEvpY+Z8fHX+7GHyWPbf3A1t1crubN+liO4sO2/LjW6ywskSCTfdjcn1iekmTh8FH2K+2vWa7Tx01UiTzK4ptU95e9975u7u2NjPLhwqAAn2goTImfxw+BLorBAZIa583JMlVoZuu/HcK2IRi8xi8FHpbolQpGHtiZKzSptY57e1/TLnHhiUNDMWht3pMjsFPuMN+u/11+8veDy3vzGmlCFbaa/tX2NDkgTaqT6ZiRLqnnucx+H9a+2f7jRj8dRlTbd/p4/aC0iTvHDbf5g+Y2Gr4hmoH3Y65eyZR7ztUAe+Py4dAd4AAFvjFI5NU2CbeYPSh3GDwdw6dJ397T3vj0CorqT5jB0TovzB6sQ0Xk2MrnBIFoXEdwWfdqWwuDP5r0uB/t+NNe1uuifLaassuy7dHJtxu/WKTXTxCqYrfxOm6SGm6LY1JCMX339dp8A/YT9Y/K/fE+3rH5XJHVNutQ2YruDNK6ZJnrUzCXq8oXEqhKZy2BK7dhrnjM6fwDSlK/CZ3lr/79u3b4vQaBIRySbgnywsVg8pOWNrPWD4ckKG4qlwLouLTqOg4VcDCz4XZETMX1bHwPEaLSAyMT+n0RYNvCWKWX3Fao2KUKtCjsfWOTnBjZbGj1SDB94qMc3OsVUBOYWWxlWjh99T18dJ00uJ6W1tVfdIgWt0IGgLWfJgTMGec8XofRTqGL5WjjDlZc6VaWfXZWivQvHi3BCAlRcdbiip5+Vaflr0OmHqTGLsWGO+nMxvE+/ahs21a2gjng16Xs9tmDxjvhrQpb5/tOX3MxsmEPUbabGSPbkMe3fxg8F8Zf4sLtnvj4GobLkvFhJShjtntO3XMMfsFAyfawITuV7QLBv+9GV+wPNG/xyXgzB4wTvQ6xY4rmwL3xOnqMrttyBxZc8im6B6tW6xex4RVvGbDhg2OuY8dO9YVHFi3bp0tXrzYyHVvSYMhIt2SUrO76KhFKG1uStoou3/kdbb65A5n0isVA0mMTrQbFLBD4A7MZkPuHlWI+shJg4sGTbUHRt9g8Z0sEdZKOt17Ktue3fu+HSo+aXHh0TY/Y6Jdp/F9cGyTfaT0kQpV8+onAeX2oXPtZvknz4j5LVcQ0hKlFSEQ3Jw12+4aPk9piBfnebYEtm11Dz6zTfn77JX9H9kJCWEIK7yLcQoiWnJkrW3Uu6gVgx+c1N/uGnaNzHATnCDw1uE1LsAqISJW/tj5tnjwVAvv0X2k9raCb1v0U6OtYitq9dGGMxW19dvBtnSXOGeRQwhtBQmO6BmudZJoe4QPaGtl0taf37vMXpaZuq+C8Mb0GSxcD621UD/v1sy6/k2C97gjthYckIAzWjEHJ21z/n57ad9yWzBosujBFFksQstEz9zbQvBGuEe52VZwUClyd9ranF324bHN9vqBlfbXU+7WOw9vxapqC0xp2z66BXMHJBScGTZsmP3gBz9wOfBELlNsgDz2lja0PbTxaWLoT+1+16oVhHKjUmk4NqWfJH8xvhcOfqxgobH2fQVuRMicFSaiMKRXf8fkT5YX2ez0sRYb3vnMMFIWh6xe6TYiOcOe2rXUekfE2L2jrnXRxJNShtkHRzbYewo0ul6BR0TXouHE6RoibssUVYqJcqrmHNGzbepUt/SdBN+H9WFk8iBLkTXlac1rrDSuh8fdoneQ7hj8O3o/m3J32xfG32qjeg9y84Cw94/r66Kmk6MSbGzfTPfegvv2/24bCJACVy3mjvWL/eAr9bs5vnnMpkWyhmFtcQFQYu5ERWNhwgbVW++wl3LZm8r6uGdD7l7bkrff4iJjpM2dsmKZavncPWKBfO8D3HOw8GCRw0zd0Q2GdlrjyTtzykW4n1VBGs/6BC7GhccopS/BMaTmjI2UuCWKMzhUclI4Hm5bxNiBK8yT9Dlq0WOeJ8AuXrAJ6wSBlzFi/cxVbEC1UhlJYcRiiv+c30l638mytjVXCCEr4GmlBWJx/fDYFkXLqxiVlLcUWSOpgRCt94wFECYfL9rXFgJFc95NW1/b7sxda1Q5lucdUa03BtdPwSsHCEJqXbWq8RIoNjNp0qRW9RN8M/0mSbJflDFZC3+GvbjrPUcAQPaRYpJfHnez/FdrrUapNDBPpgHiYf5iXveNvNYmyuwVCg1EwKR+Q+Z0e08BRVvE8EBifE6TU4fbfaOvUyTtDvmfalz6CGNGe4GIJkbFOsSv90uGwmwujAEhBKHlliGzVLxik1KtzjhimCDtZF7/8bZ3+HzbqShZUtQihbQ0CEWYhL4MpUndNfwa932hR/9XW0MgSrXmbx3bx64dkewi5oNT5S73PNboZpnLl+ndHi3Ns3C9u576h6AQLy204myVfW7EQrtWGmdYEwlJlaw9G/Jk0VGhk5SYNK2d2XakJEeCbj8JelliKqecNhstoRzhPFWCY0c23GEHi4/LMrjethUeco8GFzmOpalUSgZWt9sVP4CbqTkNAQaNNTYsytGDW2SNe0cWrskS3NNie9ve09m2TtauocKp6VJqEPA7suFG26E5Q1cJfCPSHRzneB8J5bnlBXbfqMV2nSxtzS3Kg2Vvg9ZSqmBGiiRWy58rF35Kv+FOUOAcsJk/cIKN65PV5S157crcYebl1WdtR26FGGCdY3wDtAVkoiJqd+fJjytkpAZ1qtJoQrkhvS8ePN1e2P2BIzJfm3CbofHBHDISU+1AwWFn4h0q0y9meYgQfvq/n3ZfyE2rb3Qvu0Z+tRUyR608sc3uEWFEGIFBgjyHio7Zemk1dwzta5Wqy42ETx7wzPQxITeXwAFlxKfaTJkZn9r1jq0T4V48eJolSPPAikLcw87Cg/KtHbF58q+WEkilFCiIN1YKv7UvBJJUipZPcxs52O8eXe/ylBFOPzd8odbhaIsKj1Ag3Al7TrnbCKSsTc9c35RnYIliXUyb8YCzwPGc1w+ucowMU/1Tu961NRJ+vzb+Nosc2LFaO/PYUXjY/nPjcy51C8HjRrnIYOLk5+NOemPfMlmqejn3U1PmG3gNu6bNTh9nj2huo+V+wCyPiX6e3FXkwb+XvcEd+9H8R51mH3hve//GDfrxyZ32o7V/corH51VVEEaLK+HkmUIX6b9U7wl/eUvy07EGfE6WGeIKBiemucJG+xVjsUCC0qsyzb96cKWEiLOuJkJzrQLtDZuW9N98jGvOU8TdS6rO2avbC+0dbQ9ZI5/bNxcO1BaR8fY3Lx5QpapY+87CjJBn7mivk1KG2xCZdXflHxQyHHS+22IhSokC685Ie/gge5PdLzM3i2ND3l5Lj+/jCik0B1wdcS0aLXEDfWP72FZJqvukIYyTKRvCgY+9XJI9SE7RD44hRcP4cUWEckuRr3SKmPtzqsi1RfM6Lgk/Pa6PM7NViXgfk8BFLMRsuVA4d7Qk10VIE2jjt9CDANa+jYql+MXml5wZ9R9mP+Ty1LGQ0XDFUKjk3zY87+JDa2RyRcNrSsOke6fcT5i5EcYJLttVeMRVb8PsT9DVGJUsnSE8wXLXkS1Xz/6ltMllRzfad6bdbw+Ou8nFBzCG4UnmhNE6jRmrIpp8c1uGrBNZo/s7xQqT90uKM0ARWZu7S4G/qQbzJy6FuIO22iq2qWPEevJjMfadEm5+eu3/cNY4TzvHajih71AXx1QlGstWvs1t5PrjWsSqimn+T1IEKkUb3ju6wVlnOHavrK3QOhTPrt5a7pBuwsyBD1G035jb38arVOXRgkrbX1Bhe/IqLEr1pR+alW4TB3Qs8jRh2JdcwouGeVw7aJJMYtpx6OgmBQZVOdMdtZ36yH+7RQx9v7QJ0izw582VhohmGGoNAohJalb6KMsrzbdVYuQgNAJLhMYbKTMcBR6OKYoU8ySSPdoSfqhQbhAiXCXjRJQPFWU7U27umSIXNJUgYl4jrWCzmAWEG8tKsTIAJqUO6xZIHMrvpaVjIw/9tQOrbHvBIeHdVDHa0c71FdjfyN7aPAofefIAMXjshE1rrGUYO40tYTHXYo5/YMz19s1Jd7oYjLnSDgcp3qQjGwLNu2I0y2SSJvd8cea0Txm7Nw6siPeNuk4Wh5EtYr4IRx7jopgLPuYFAyfZV8bdqs/NTqPFxUFcSkc2fOnPSzBfJ2vitTK5z5PG7jF2bxwExJG6h4UUt1pzG0oajJ12SIIERYtuVYQ8VfywCvUXXbxBFr+oEKTbzZ0r17c7xYbBU6Hq+4sH2778Cnt6fZ6t7FNqj12boX2gO9aX1RIAefeAVItUAOGJHW/bKgXSHVVk/DqZ7vBZVUjie2nPu9LeNzv/DSlYmH5CtaGtztP43lIAHWawaZJmMVN/Vv7nA0qJ2Sbm/pGQLFbmbMxf00VYu0IjhWe6TLSbFCS0TgJWrN4ZPsZ79K7WHN9u+6QRMF80FSwY4/r4JvlQfa+sx60SxoiPGKe4lb4yQ3utRv7XYrlW+B4paxrkulKuI65trhCKGfw2mb5T45LF0BKcBe6ABNpIBY6SXUIGBYFrHlPwxtAe37i/qCCXL/PxvRK+Sc/0GjFKp2UlrJSVEMY7Se5MguzwRbdUw8b0jOshUyZqGOkfdr7tBH3wY/epI6rHnukCCr0xtOc3sRVYPyvE5OeLNpHK6rX6ALtS975xp5DChpYdI2ZNAHNLGrTtf8160AkK3P+/Vv/evWuyohACsBQ01RLUkud3xD3tztyZBIUuhmkxfmlGmn37uX3WSzWpp6qaVXBD+C6Tjz4mIkyIWi9hBV/TWX8j8Y5RVPWYlCG2Rz72V+SjOSINkI0KTkrL/YtSzN5ydatLHLKAMIENveKsTIcgMEEqnvQceA2LGCKFVBqtBdZeDUFlgiLkB/Tqp0jyPUY5TnK+QfRVYuorFUn6mnxbRJwTXZ8WFFAEoSGCGZOmFzwYOFY0EIhQhUycIFFHBeU4oieNJkFE+mNZJNjyEsJ397AFVltbYy+o/CbpTlxHHjPm2cCG9gCxhOg1ZHXhHBG2RBnXRxI3X3sIfJ7/u3EIwGCKZDlKlhCWLNN4YJoia3W94irISy+T8EZq1yxtioIQ2iuqeSSNtcCHhluKKGoiqKuFhwgYpEhSthYfd3szeOZ1vLTAakT6iAwntsBr0AaC3dZIOM2TRaqnhA4Em5sU4U7djZY0zM+eu61AAsV72RtdbYgPVZJ2Q/5eu3fEQmei7wj8PVVdppzzfOspukc6YiDThs4QF7BetKpEilOErpmYOlyK1UyLayFzDwwOpgTxMgkW8cq+gO4Rx0E9ANwAXZnBdwh1grGdqVGxEe0ONSo91n3/bs1JIeYFnxHbQu7OP2PPbsq3k6WhV+8XxCaIbvGgaTK9l9lTyn0nAI1o+PH6DJb/b60WBQFAizImXZQ+A7PD9M3GFaShwCSCG8ySYB4Ce/YpyKM9G8wLpJ4ngnhM5inKUKL1YpoEaXoJuZZrsWOqn6NrAhENTR5zPVI28wHxAhvnT8in/fqhj2XlWOKEIIhl042mgb017zeIOFzvYbLexzZpfStkSUHSh5FPlHWiTud5P6Q+kcoYSKwRunaomAU5/Q3Bn00miLAmlYadtrjGBXE1b4j+1U2EAOsI+PIhMp5/XkPwRcumvsHPNr1g61WIBo2dLJbWNNY15np2lHts+v0KZJvh6lm8qbVMLfrAMbTmOY3dy1zr5/2Jl+HClN1aJU0tR2N8QjudIagynpZq7cFjOCw6gKWAANvvzfiiSyN9QdvGrlDdfYSe9m6kLiPAaDf6erwKmDuCTD9F8u9R1st/b3jW1a9IkILUVoyXTWXwxz805kZXix7l5/Ftb7h8+GD61t5waMv+O4S5Eym/RAF1a7Xv8/++OcumaYOJP36ca0t2nVJgRP1brNY1K7Un9I+WZtvx4tBj7gAdLZVgk16SqgslPc9Smgz5kCn6GzN8pbQ6rU7nbw98SSxaNJGnd79vf9z5ToPMneAWpPKfbXrR+RkD72+P3xDHOUoVi5R/qUKMa3q/UU7LJh1omlJDzkgjwnRNAEpgY7Ej6f5Rwg2FeoIXP0wQd8U7EmLwcf922+uu5CMm1I5o/SW0UJzjnAhluHxC+NV5b+S4j5YVolLm3H5KCRytvwMbWtMKaSyPb39Tub8HAk85IkoQHrEU2+QDflo1D15Q0Q+2E/Vb+0AAnEpUhHih1iG53oHrB3fLLLlf8MMn6bqJstYgmLIDGBui7JJpFX9yQ8IXuc7g4l65n6jYGNjQUB+W3/m7U+91Qm39bnIzbY3So974hMFzfY8AxhN4f2t/s07RwsNEL46X5blAXa9PBHIEV/zhaLb45KE/BPwBm2xZERE4sZYFNwQGYmfIjiHYF1cVCkdg66c+H1MA3ze0PeoUCfjfUC36yQoifmnfClfIit3knDDMbRffGthNi3/3ioqTdaS3LGzVLtiVAEmvhcuSOUEWU+Yeq8j5qakjhOP1MQdY0nYq6DdH9Jh5BjdX5EoWHopx4WfHOhfYEJCGiy78cP7X7fMqQzxez3ls+ueV0RUvWvCGU3Cgccw9tGzJgbNo+He7M/cqFaxYfqDY/u29bFs0LMk+OyHF7p+iqExp8f/y3lFbeahEEdrnLFoBdnO1fWRsNHthNzzYzj6KdoA5h6I2KWIiC6Wh0yAKCwZOtj5anDPTxrgo7cCxog2ki6E4bZEghAawA4I1SUjVR0jWEdPHx4ZGO07Mb5ACVCCUNPzxc/pPcJXqiBb2TJbupP4DBggAuCgaWu4QT4pMfHvy3fZ/5j0iH/ho2yKTWkcxwiQRCUpqjlC073B9KCVKI21xqghChtwlU0QcEFwCG0RypILx+sX3FvwvfgMwCa6n0MUPZn3JCW8EVDZETAL79H+3HAK4tYYpIr5SxJ48dzTWwAZzYv2BW7i4+IdFjIyIn276ixjyzgbfD2mQbx5eo13CXhUzPB7Ypcv7JkUKXKShGeKPp8bFOkWTv310neUroPZsmFZIO1B6cBJLYG+Zh7FGHFPAa3BUOEyeuYZ/8s04yWphx7ffStvMUeGs4HZEmSFUpvzlllfs//v4j05QoZZ6YGPeWO/AbxruNIpBQZNwZWGqLj2rLVLl4m6PuVMpkNifaDHy5XKNULQoWDijoA5ZArjFgAF4ulcCzY+0KQzulGCLKPdjfQQ2P1n/jP2XrDy4HwLxm34Q/LFaeK5SaCBpzImiJTD4HacOW40pQp+5BwItxH+3K3MHEJje39kj35ly2/G7w9v694q0ucOTLFG+9dd3FMm3VivTbw/rLV98qPnag98f/j12E7pWkaxDk9LdaUxjSJY3qpAK5RuDzUUsSCIwkU4bK7QBkWIxBUeIBj+/rf5mTGkKImIrTMpODlDqHg1fMlLxDWJkmOS9Be89l78pfAOzo4/gRkQrueRI/+Snko42WMJAVAdVtoP4EStASVkyFvoor59GnjB+2cXy002WQBPceGcUCMHkG4zA9Ikbg/TGfXKdEMyDkNeecRHB47va/sYCc2PWdBshwXOFXEC4gchEubjJZC8Czsf90zdCJOWVHXO45E3WE2eY4aHiHPceL+7v0r/qGfwc53cnXey13LW2O+6Uba865vzTwWvl0h6afoRn3SRBYqrSNffKBP2WrAXHysXgAzVS5urmXO+soHfGgOaKZuoq+AU9crs0W/D1bpncqflAqd2Tuv5KzWPwkyUMv3Rgub1duNEO9S63PRUnGrQQXKm/y52Hht47YpGNVN2J1dKyKayDFSaQwbsZfzJ3+qo/18N2CVaFstRgIQ1sxNwAFyLg+bxzdL2dUL58sNUi8B7vdz2Dv99ZRn6rWvQf1x6yQ8nldqD0xMXvw7shBL/rxbR2GhikPy4yzL4yU0xQn8QYbdMhhsDezv9193BnwiZd0RW40AptCtDbaahN7hap/lYxccyCRFXSYHIQ/r+d8rnLps8ELtSGH1hPpBo+1/ZH0crvVgpIjSp1IQ3TEDJGSYP9tmotBwcFeiMQfl2EdN5x7/6wsJ7KwdXmPTItEmuwUBX+GgpQC7yvLX+Tr/tFFcCgqpcnnKCRUG2MbT2zel0c7NjUZ8NcKDBCbWqsNRTFoOqf39oeAghUizKmOO31z7uW2DMqLcz+CAieMRIa0TwpsIQpHsbFugU3xysIaqCsNI2VTYVoY805UHxca6Np465n8LNdgN2v9q+2Ywn5VpC91AYOHmTXi2m0ld+b0YwW7j2sIlnV0pJfk9uL8tmYo9EsMVVjBYPZY2ny6t/3F+1hLwUyCBqQt53LgjggNkVhE6glh9cZPu6mNBj8Q2Plqvjw5/aX/NVW3Lfc/nvf65Y1YJCz/AH3tmozZOX7+qS77PHNLzqfd63GiEWRCpkILdTcIK6CuYPXrBGqyw1KTHdByMHjYBMs3g+N3HgslZQsRltvSmOt/N3U++yeN/63bazYZbXJtfbfO161f+3zLbcJVVP66Mxr2pW5M7HYyJ42Nj3uojn2V+47n8AGw+gKjcWMNsonsKFxY8K6crvcwmLZXe78lXtvzhUgCrXjgxsWhglRQ4IPX/J3YyOF+JwoK3TFKIi2ny8NGsHNY7SXdNTGB/Bdkgsb3KhVwOdKrbF5EdBEuiDmPzbbwCToM/crQbPl5yGuXx57kw2QuZhAR6qn4VfGhMsuXvhb0UaxFHmmdMRjSZ6XfegFEbqxN33p7TD4VK0dLG+qdm67FblOND0xOG3J3FEUbpXVjAwBzOHEfxA/QEAZAvPh0hybI0vbzbqGiHqvuXl7fwR946unYdUgaJA4mt6yZDW1gU/gzTk9H/P0xgLcJEWukBCCfFs1YPylMTcoLTFJQb4rXc4/8T3Mk5gYitzcriIz5P9jPaRdTmGCVhMTheXiWQXCknFRT19ZH01791giUYKqVa2zRpYACnyVaSwIGA1ZLt2gQuS/dmfuzZknOEmAnRdk15x7Q/5a5iamR3AGCxITEgE9bNqADxvNFgZI1algP1vozY13dGEuzIliGETVpknoAfHRDtASqHR3pDTXIUioM0LMfgTceGZQ/Or46EiDhEjA1CFyBN2gtUOM/Na+EIDB3yNzLfs7YHaGOZFSiraO6R7rEr87orFF6uikwVZQctpG9M4Sc5NrRnjb1o11RYloNnQCdwjmJFAVBeKOoXNkeerv3EzN0ZqhN2wSQ8DdHYojoAx1cxqKy7DEAVabf9hmKa5ogAp3taSQzJWeiaB0x5C5NlfBvrhXcB+QyUIp6fu0DoZIUME12hxFAb4yWlr7n3cvdbEDrJuYJr43GDgFjTZn77DTFaVuHeK+C3XGDpxDhrnD0I+eqpKpqYcdU7Q80fNsONEdGkwbaY/tBmEeORVFTtNAonxZUddflLQ6QX5gqqexCQ1FcJBUYSih1mB8CCX1e6XXOOEEyZbiMGyverP2ysZ0/apMiiMUqEJEPUQIH3goM3cIyOlPBBRMvvjV0Zhe0fjRCseKOKA1Yh6F4RP4RCCO39ofAhByNm9pygYuzval6yG+9VqaOY0XTY2oa++od645o5/ab6Td01+Wm12F9tlBi1XKeFybau3BYyEGh+BQPldqF+ZTr5GiQGDGrzfd93BWpo9P7rJrZGlAmaiWKw6Tf1MFBIT0E0ey7cW9Z+xbw2+TZWxAk++90tgbOk+acZ+0K1sX3Lw1ZUzwXiN7gL8RkoAG8VCU08XadkJpuQiHZk0Tylh7D8p6dHT7Ptsp+vbtCXfJctQxwqQ3n5Z+hw5z12IkF/7+KSnSlFQ3WXnvzaxH0VIYtPt9mMxYUKS5EHmLFE5D40UbIb96jPyABIAsHjzF0uRDw8cUiswdDQAGj9k7S1oTm3BgNsPkh5k661S9ZM1GFMIwzfy8C3DLbMD83+6Ab8YDiDsgv5VYigHy2aK1a/hOQy+X9oRpmBQitgEdJo0N5g4B8lvoQKDeGlbuBDP2fWD3t2iZb9nljPdJWiQ+V4RTalUQQ0F9Ca9e/ZVmwnUjwlNtbHGyjYsc4EyzV7qnI84jmOJvZz5kA0BX+P2RAtPQdKErv1OKJ1tSk7VDtgCaOAwv7JO4oSuNE9yYGpVpO/LjbXhUWrtYLK40hobOsy3uGdEggiSBAzECFOFBuGFDofqKcxGuIFA/BRATb9HU9+09Dzyfej7DagtP2KDYFOfr986F8nfIMHe09BtGaUtSfbpbQzomFQsJ0GuYtdnE4QZFb4/V9oIsyoWq8cwnlBuBaWisgVorkjLR49cNnuZMduw21dUawUYEcPHxGq6G2QPGujzia2UWxhcK0fDN8R6EQusbnzTvDN84DA23EAxtveoukN8dG3GnC1jjOuo84GahkmJk2MWVCi83K1w3dUp0l6U3ZBrzREOFCWHxQ2On4tsLKrZEcGyC/MO4kQgApogTVgyYXFO1dm+i51ROiLm7h3kHO/mbAllYIlCeyiXAES+EX5ygV/bQoOpeD+FsqoQaUpjnKD6DWKPmNjf3kHrrV55ByDD3Kw+1e10BkUCCxJ8zvovXOGcuMMdrtNnDCOUmd5cGAR8q/yaBdJ9aUaCifgtJCMCsRkjIpMYC/mB88eSDj1GN9EJpdgRUQdjxZ8+gaJP8uC0h9KE2efzH5OPfKOE6QcyNOcPox6cOVf31aJfSeoOC0FAoEE6jIyKNLZK9nPZQm09zxkNMBjnpWBPro+h7KmBwpN53sXOnscUraZEExuFKuJrSV33m3pyV1IbX4gsjUl1lU9qw187pCoQZJsTpbg0CycdvXQMCpHOSBhfYMFEnyEdK/QnSIBHS4nuFXixL4Jib+xvBmk9gq5M2z8Yv4CWf7iDEBM7P++1q4ytAzmvENPGOCcIkw6A9Ah69Z4X6t8/cQ/0N+ePzIeBDoMUQICBqnNxeMLe2TFlr8YA66EbqMFw3aKpjbs01v3fQENvlMQRSkvtObAV58Fdz85n71fz2/bn7EGgGBEqqVJjoVLWV6rs+Fei8pcTJxJscpbzjns4jmVta4/aGINuFqpODe0dbWkKkCG0zHtSGl0LgOypVrg2H3equOqrSZasH2sYd8L7Z4MtvIZQK578MHwI+BEIbAqVV52zt0VJ7b+9pyxMTp4z0HeP7Wp+4cMfcGT07Oj6/Od925KhEb2qMPTAtVfX6FcBE6oHffAj4EOgwCFzddosOA7P/IB8CXR8CKXERNisz0ZWL3pxdaqfKaywtMdIStNkTDfY9RJp6ZHgP7Slx1kb3i7Ws3jHNKjjiOvL/8yHgQ6DVEPDN8q0God+BD4GrAwLs3DhepaTvHN/Htoi5F1ee065t55QaeGH+bgdnpRks1A6Qt43po90Tm592dKG3lv8if52IaaKoiai+mszU1MigYBZxBsy9O0TFN3UllKr4VKHmzpatpDu2ld/dFUXqYtYnn7k3ddX41/kQ8CHgIDBpYIJNlwb/wpYCW3Ok1GYMUlaBtHra1pPaf7281haPSLZ0me07o5GauT5vj711YJXL+75JaWLzlKaZ0AYVHz0iXx9z0Bmzu/wzqTz3zpH1tkwfCvjcM+o6baYzpM2CCUml8z6BI+HYlVpj1zR23OuvKed5H1SV/It2r9ukapkDtWPn50cutoEqk0tdwsuNrrH+veP0XVtba+fOSZitrLTw8IvZJtdR7S8qKuqTWBRv5J37ffEoO3cs/tN9CPgQ6AIQ6JcQYbOH9LJl+07bmkOlKjxVYXOyVKWwts42HivXtsFhNk4afngTo+hycnLs8OHDVlFR4YijR1QDQdHQMc5fclxUvCrsnD1TtMreyl1nZ1SkZn9utuUmH7H0nhfXUw++N/jvhvrfv3+/G+uqVausqOjCtqkN3dvQ/Y1d19C1HGtuKwmvtt8WfGAbTu/Tvus9LD+vwK6LHG3xTSy3Gvw8b7wwuJ07d9rRo0ftvffec7+9c9wT+Duwj6Ycb+ya5vSLS+hYWKn9d9G7dqws12KiY60su9Am1GnHOG1AH8zcG3tm4HHvN4x73bp1dujQIXvttdccE/fOeWNMSkqyG264wWJiQifN0mfugSvR/+1DwIfAFSHAzmjTMxJssjT45QdLbEN2mU0cEO/2hjhUVGlj0+Lka4++Yj/eBSdPnrSVK1daYWFhqzQfCC5EvirivB1IOmE1YWe1f1udbc/ea312V/l0dUMAAEAASURBVFn/mgQR+XrN03t2U749Qg6RZ6zZ2dkWHR1teXl5DTI173oYove7see4Mes6r13pevpsrFFnvTyuzvKSCuWOUMnr87W2fv82iy47bfFnI9zcL3c//TZ2nuPHjh2z/Px827Jli2PygeNo7D7vmtacv9K9PAPtPCex2sqjKuy83lO5yvBuOLDDwquLHXP3xhH43ZR+uYYP8y4pKXEMPiKi3krl3c87S01NdZp9YP+d/dtn7p39Bvzn+xDoghDI7BPttPeVh0ps9cFi52PfIpO8iqA5v3xcVNN3zMvIyLDFixc7k6dHML1vDzSBfwf+5nzg3/yuUwzA6Jps+yB/s6qTye9eXaed1MbYwn4TXP7zlfoM7C+wf47v2LFD9djD3HgnTbq4VHRj913ped557zu4H+8435c9p/O1PTXXgo32Uc4W1dOvtOjzUTYjY75N6zvCVWe73P3B/Qdfu2HDBrcP/P33329ZWVlc/mkLvvbTE/oRfC74b65t6JjXR2Pngo+X1lVZ4oElti1/n8rR1lq/qL52/ajbbLiqTIY1sINj8P0NPc+75rnnnrONGzfaI488YvHx9eWKvXPcx5qIjQ2tDWV85u69Uf/bh4APgSZDIFL7eM8cnGjj0mJt64kztnTPaTuhNLiBynkfpSh5r7EjIrnxu/POqPzpeRupc5lE1AfsA47Ww6ct27ja8TavZLIRYLVduxTuKc62oj51NmmQ9jJXoFVLW1VVlW3atMmGDRtm48ePb2k37Xpf/wzt81Ayze2JsPzENttelWNZ8Vk2I22Y28OipQ/HapGQkGAIY8HMvaV9tuV91Mh8rPf9bt/3swqkfOXgSlt6equl9kvV9rzprdoTIjEx0THvlJQUB4O2HHd79eUz9/aCrN+vD4FuDgGY+MwhSbYl96Q9tSHXsvrGOA2+7yfBdUz/ZEmNvb27yLYcL7d8BdrB3L88vZ+Nkem+cQNz6wHHLmbjFEhGY2Mmtu5dfmyL23L5hszpYvAXygoTUY9plUpugdpYQ6PgurpParQ3dD4UjlFHfVr0KDeUIdJan9j1jr2oraUZ96z+Yy9i8JTn5T3gcsCsf7kW6vNm7OlxfdyH32kqP/uLra/aEzuX2INjbnSbXQVu+sQGQrzzpkTUM3c+XakFJLF0pWH7Y/Uh4EOgsyEQL9P77KxE51/flVthvWPDnb+dynReyy2rcQVuKHYzWxH2MPltJ89c0Rft3d8W3+wU9plh82162mj7SJos0eTsHgdxP6LtfFdoa9SjZXkuba4tnhdKfaSJ2T045iYbEJ9iL0nAWaNI8gqlyrE96u5TR225tkctEiwks3S7xk6V35x4p9sC949i8HtOZbvf7Jy3KW+f3vs27QpY0+3m7U3I19w9SPjfPgR8CDQbAhPS422qgutg4tMyEpWCFHVRHxn6e5A+pMolxYTbgcLKTilqU8/g50kzN1t1crv2Py93/vd1ubusSlu/PjT2ZstMTLto7N3lD/ZwZ7vpJ3ctcabqk2eKnMl+hSwZ/XRuaFJ/B5fuMt/AebBLIAz+l1tfsSd3vmOz+4+xk2dO2fva+pbtX6drG9ju2nzNvbu+WX9ePgQ6AAJ9VaRm0fAk++LUfjZ9UMKnZWi9R/dTXflUfShuc7xEPnkx+pEqS8uGLh3dHIMfOs9mpY+x3UWH7YNjG6W5bnWFXtj7GxMtGi2fOpnqu1NzDF6mafY+X639zpdlb7a1ObucqbpPdC9nkq/QfugU/wmt3epb/xZg8N+a9BlF7Zn2s99g7+u9by88YjNlyYkNrxdGyZE/e/5c6x8WQj34mnsIvQx/KD4EuhoEsMDPVc47qXBeIZvgOWDy3ZdfIf97tU1R+tww+eY7qyXKRH/7kLluG9T1uXs1jJ62YOAk5ebHiOAftP2nj2ur1ME2TAyhKb7YzppHS56Lif5Lo6935ukPZY6Pi4x2PnhiDjDXHy8v0N7v4y1N2nwnyF4tmVKT7xmu7X4fnXCH3DA59tL+j2zo8AEuJuN0VZltKzigwMtKu37wVK2DC8GgTe48RC/0mXuIvhh/WD4EugoECKALDKILHDeu3MOnKm2tytUOTo62Cf3jpB2el3Zcp+1IO8dwiAY/vu9Q+/DYVu3/niK/a7X9Zd+HtuzoRlkeom1QYj+nxQfOo7v8xgwfpuC55zVftsI9VJJj7x7ZoM9aG5cy1GbKqtHdGLv37nA/YDHKkVviC6MXyz2zw7bm79fc19vdIxfpso63Jnlja49vn7lfBqqYp6rP1kqqO3ORFE8kLqY7Ik1ZLFyHlJ+kesY0AjY4zzGibzne2Xsqk5IEETujsXkaCWOPCYuyynPVLpiIeFmIMRGl7IeMRM9camWqYx7hPcJUs5l9kkMHCRgj5sQqzY15YUyNEPGK6Bnh5sv78Br7eaOh8d7KJam7SGHNhRrclCa9UqS014//3TQIsJYOFFTaE+ty7FBhlU2Qdp99utqGKEd+3tBencbcGf32wkNOW42JiHT54KcqyxRgli2if70RYU47o3UVGRbe7Wqz44pAWz0nM/TRsnw7oU92WYE9Is02JSbJ4QXm+ejwyE6nW+5FtNF/0MAX9y93QZTrcna7oM7dp45YmWjcwoxJEuyiFH9Ro4yKOovV7ytlD7TRsNqtG5+5Xwa0LIaTZwrtjUMf20mZrMJ7hDtz3eJBU22bTHj4rGrE/GNl3prSb6TdMGiaY4jbCg66qFyYzsTU4XZr1qxO37jirCKDDxafkM9pvRVUlDjEJVVomsZNHW7GfE7XJGkv5FkDxtpcmecqVLoTJFiXu9v5IJHqF2VMcQTvMmDr0FPVEqK2FxyyFSe2WHEVpU9jbZqCZCDQH+fstH0i2KQvobHMGzDBJut9cN1K+R0hcBCw+QMnyv82RoQsdISWDgViOz0MuBedqbU6aeoE0xUqFY5c96Eyy7dUa6/3hff4VMBEgGjuWwMvV0trQyAcmNDXJqYMk0m6UGbqGAVcjXW58UTVR0vwndpvhPPJtxOImtwtQixCtcdwWjJvHkaWwIcKpENBYd9zcBpYZPZKt7F9s+ywzNabpc0SXDhJcInVdZ3ZUJygw4HKUUvnfkxCDILNgPg+TuGaonebX3narhPd7hebbFs07y2ig7PTxyovfmCDhW86ExbNfbbP3C8DMYgGWh1E6s+73hWRqrXvzviiYwhogbuKjtiSg6ttrBgGDIJc0fMiXmiQW/IPqJhCrs0VQwlcmJd5XLueQiuNEiMrUeDIH3a86Rb392d92UmrjHetfG7rxQznZUy2a+V7goiESVMnyORjnQPJrpVQE0paOwBj7FHhEaonnW/P7H7fRiRn2ASZF5G8z0r7+ECm1gOnj9kdw6+xGzNnOJNjuLQxLBKkwmCWvTFrpjveri/gKuycNTdCwXOPzh0goRcirUpessT3jYsUI216BbuK2mqZj0/Yfgmn5Vq/EHeYzgBtCsK6JBiOVK+mWl6wYGXo+q+Mv9UxbwS8n256QZurhNsOFbx55cBK25i31z43YmGnRVMjxByTNg2NwS8MHkJHBsYr8E90ht3eBosBx2jszWml1ZVOmLlJuABzwyr5/L5lNkFuiveEK5tU3W1/8XH7n9M/73CrOX231bVY1A6WnFTQ41GHp3X6O0L0NksCSI1ocIaCAjOEt4E56015dnF1md04eLrbSGdi6jAH25zyIhdz8fzeZVLItkrwP2NzxNy7A0HwmftlVgWMY0B8X7t7xAL7IHujrVakZbyICoiFZluq+sXLszeJode5AB2QL0zUC6kXDfj6zIEuSAMm2dmNbR8JKvns8Pn2oeaSU5LnTNFIrNcNmmK5WuSbRNAiROBAIpg40j3RtalxyTYldYSCbcZ2GsI3Bj8I8yQh6u1D59pK+VB7iBAkyqUwUMT7liGz7JAYwgEFSWGOhyAgtCTJtdBf0ju+1ZvF2CdKGPA0osae4x9vPgQQjnvHRrhP8++uvyNP23e+c2SdrZQgBvMmKCxczK1EuFdYUWynldL2tQm3WbrwNExvsSkNwQBBDzMsuEmBm/WyUCWrsA1/w9xiw6NV/CbTrZWm9NmW12AaXn1ih71+cJUV15SrKEtfh4u4CT4SHI5pTd+i9X7v6Ouazdz7xCTaffIvAwMEiKd2v2v7xEQjRR8QkPZJEIZ+ISSDWx3dELrf1ft+6/Bap7EPEM5GycVWIiHkfdGto6eO2aNT7tY6SG42c4eWfWXcLe69I+A9qeI+bI2LpaKXXKe4ZW4fMscGJtZnTnT03Nv6ee3K3JGwz1RLClNuK4UtQL1eKnQRGxFmJ4urnQSenhhppNOEaqtnBvF2U+ZM+1CBF5h1vjz2RmdmR0McLPPvCZmyNijyduCwFOfHImADTfKBMdc7YhEqc4Nh9xehWDhwsv2q4EVntr596Bwxw1ib1G+4pYjRHxLy7JT2co0sEdWSkrNV3APNiYhihJ1QbBDkYRJcZqSPtqUiCmgf85XDiv8QtwhBUnulAR0oPukYOUTysKwqEC/yXH3GHopvFRNymf1l7wf2zJ56i8w9YkpEsiOAonG9Kg0bM2remdOOUTXVQsbe7t7+7uS7sxZG9R7kLD7gdN2hOqchjxSD6+g1jwkas/nPNj7v6OPnRl4roXqcw1FK6eJqYktT8BIttrktQUKu13LkciTnfe7A8XLPjZZpPs1OyP1457B5MlP39i7rsG+KCiFo/WzjC07w/sKYG5yVIVpaO4V23pdlYdmhNXr3hS4uoLkDo3Kf1w6JFhB3c1PWDLkmxlqCaCCu1s/KwhcT1vFCjTeutvxuV+bO6oS5L9172tYdLbUIRTvdM111flNj7YfvHrUBYuwPzUoPaeYOsCEEM+Sb6ifz31Zpt/ukCWLGqpWWiC+7VD7cD6TB41tH6t4qgoNkzD7KodaQUGdIA6ck4yYJJAghSOqYsAmcK5Yku0paw9wB42SiKrOdYoopsb0Ua1AfZBRq8/HGQ/rOVPnN3zgk5q53lK8NQ/pIE8PEVysiePj0CVeVaoLeCcLXYZn9MMmjrfgt9CCAjxm/95NapwR3fllFWObLxeWZYrHM8M5rhH8cg9FhnWpuw+U2T2v9liEzLSsx3TYX7HfCQkxYtO2RFotbLpApNLf/5l6P1eD3215XrMgx+4c5D4nZLHCMh37AQBgweFn2SUBoc/sPvF6FV+0uVe4bLAsWQj+MleCyE3IH7JUWO7rP4E+FoMD72us3rsxfyj1Czvk3lJfO+wb+tP6yzPB+ED7OibEgBLWm0S8Wn9G9Mw1rxr9JmCJgGFcAys6QpAHODdKaZ3T2ve2qiklRNEpUjtfezgTWvLg539YcKbMdOWe073OZDU2JsZQQ1tq9l4NGkCHGDsPLL1VQhiRrtFrKGZYKGWK0GNZJoiZPlIVJoN10BaqRchNqjViB4Vq4mKKPSkhZq2A5EHr36WxT6JOd01yp2kXQHQxyrxb71NSRzkwZanMJHE8cZtS+mQqkS7O9sjywWUhhZYnLW+4p4l+iOeJHxbyXrXdYoHMEDBEN7bfQg0CB1t4SWWEOqzzsNYoDQaP2GLs3WoSze6XN4zsOPuddc6VvcHSGiplgEcB/T1rYXjH1vcKHZ2UxWHJknXaWK71SN21yHoGGIitrFeyJxWnWJxplYOfR0irvknZ5rVxpCRJ6WtPqg0zHO9cbdOtVuQFyVb1tk8zUv9/xlnMNUKq2IxqKxQuKZN8pxej6zOlOY/cYu/d8XGsPyaxOGeHW4u1Q0UCskamxSU5geHn/Cke7V0qg/NXW15w/nvfRlVu7MncAw9aP149Mtu8tHmSDtWnEWzuL7Dkx+Udmp9uDM9KlDXcNEwgLi6hKmN+yY5udrwYmPkPa4pyBEyxbfjDyJnOEHKSXLBRBClVzb18t6PkaM4IJWvpxSepIrJjiiZg9IG19gxghWj2Mn5KNod7wx6KBYGbnHWzI3eNyeHMqiuy6wdNc7MRumd22KkKeeuIRYvgwDL+FJgQOymy6R+lqVBAb0TvDBYB6IyXa/YDwbZuyJHiP52SdgSmRftrchtndC8TDokN6GG6re0YsdAIwWRVvH1nrzMLN7bu51+P+wr13SvEE41KGXGQxQFPNFj6SwgcjJh7mpMzTpLa2tKG0eDQKMzUWEqyP94xY4KxaL4rh4fvvCAZP7MRquRsQJaakoUxcKGPM+61/3wedxo7ZnGBl0vVa2gJdOMCUKnbsP0AQJdvDPr7tzXoG38U2iwmER4eoLfjb5w9NsgdmpNk/vnlY+cd19k+3DVEK2QXZgsWbW1pj5dp7uV9ChPVS6kwoNfw+k6UhDEoeYNvz9iu4Y5Mz231ZfqEC+fyWS+J+U/6gU5Ly2VJyjExaXsOARNrNSfkJCQYiQKYhyRMTMpolASQIE+3VMDtNk/SbJCa/QYFEH2qsaLJfHLXYRcz/ZssrMm+vdn7H/jJ/Zsoc5jXMmAS9EIiCzxrfXLDWBDKCrKScJUXHd1gqUUqMAv/E3F+WL5YIf4g2/z4/6jp7WXBfdnSTvabsBsy3zIngLK/h7+PdMTd2DGvIFAtRRaNEe+orf35D79Drz/9uHQQKtL5K9D4SZZHBHxpIjLGasenJUsXAnBTDG6D3eLNiR3hn2ky2xQ/G/YaZmnWRItyAcZIGC4OnEXzZno3UU4SUs7J49tJciC3wmgzRjpm/fXiN7VPp1DCdmy/Nk3HGqUZDaxuw+6qyBwimhcmT2kuwHXnhWDTmKoalPVuJAgfzJVyFic6SokfmkdfItDhSkmNvau7HJYTEiabclDnL+eVbi4PQMwLt/n7a/cZGM+B2lord/Gbr6/bbbW840/0YBVZ2xXZh9bTz6Mkhjhcz76VqViWVtbbsQLENl1meIC9yXzHTv7StwEoqzlm/XpH2Vfni2XQiVBoSPj6+hUKox7UJwRMyW2HWmqtgFzTcPvIJrTi2SSa8YrtDASkQJK+RgvGWGP86afr4i+Yp0h4pMTAalejNNTLtrxIhWZQx1bkAvPvb+tsxN5mvcR28LeL1gtJA0NipuU0EbUTEEnvn8DobL832i6rk5I0TJCcA503ds10acKQQ4TqlzS2WRcNDMpjkXvkLX9NeylgEMHvdoXrekxWw52kJbT0frz/GOUrm1ZHJgyS07HLEeZHMlzMVaIeP/U3NiQjkqf1G2WKNG62PBrMgYhYzMEILKUYEFY1UkJUXf12gyOzlSpX5WJoM8LtJhB7rRyDT8cbhf7ceAmhPEPia2hqnobH2vPVDPAuZHy/XrpAZff2nAWAQ5tY08JuP9xyyLm5T9LQe7Rg8KWh9qpVj/+kVrXnapfdCCxGUYTjUzwj0K+MfJ7sDjX2VSsf2VbYHwXbxbcDYGUlWUvpFsyKLBtx/avd7Kte6wmUB1UlT9mBz6ehbdwQ8IjCWbVXBR2DgNRQiAmbBxaWiPdNkYSROyKM53nUt+UYBGCfaFzivoQqS/vqE2+3Xin34zfbX7Zvy/3NdRwdXtmQ+gfdcEI8Cj7bxb5j3mqMltvJQiX130UDr3yvKfrn8uPO/86jqs+cds0+MDreByVFi8oX2+o6iNh5F67sDsfB1Raq4xW4xN3y2aHAEZeEfyysrdH5eBACvEXSHjxfTD8hJ0ZXfbX/TmZm8a/gGkfFz43OjkER7NzaLmCckISDpmBjfJPn4sDjgixorSfVkaZ4LRsMf6bUqERwK4RyVWXugYhAwY/5J6SQEuXittLpCQXiHxVirXWEIzIzk0XbE1oogP+luM9JHudzgEkXYEkCHJjBGpTYH6Rzz4j0GBjsWyWpBPjENHyzbYCLA4Aek8W6I1sVsmiaiik+W9CwEMr+1DwRgLknCrQIFjx2X8AzsvUbcCKlafOIVIJoljQvcCpfQlS8hDBMu8RaN+UwJesWPHmzGh8AHEnmeh5XrtiGzFXQ33sWnvJa/znbEF9mOmhNuZzlvTG3xTfod+5FHiq8dUmAdliKvwVz669wE0RyqRJLrTYQ/a5n5UDMd7bYxPCN1ENzFlI8AHtyC5815rHIweDRa/PFvFW2yA73LbF9lziWwC+6vuX8T6Es6Y51wisJTMHivwVQJJKTYELU6GM9wWVARsinKQ/oeKZONvW9iobgGeAYKDV7/Dc2dUrWPisHzTn6/421bVXPA9ieX2ZHyrrM1cLtr7mfF2Nm/+V8/OGYT+8fbX83rrxfU0/6f1w7aj9/Ltn++PcsyVHN6kkpTsqsULo5Nx8ttX8GFhe29hM7+xlyOhjtG/rAcMYmFgyY7ywNaOkz/dUm4Y3SehXGhnZcWH+M09Qm6D2b3f6341SVBOpgEiU7trRz68x0QyIHZn6C6oSKQcUIYtHYICJo2Jjg0XxggeaaBLVWm73tGLHJzxGT5xM63XUUv7xqkbLQqhAJnVlSfEFuyCsza3xKD0IKgMlDEfrBMjBSrYF4QBwKvIG7jU7IuchVAJBDUblAgD/7cX2x51fnt8b+qGK+bGnBhYwmIDgIaBMfX2r233vbfmIfH691tVuwHBZauGzTV4Yf3JDR5atOh7XrEmXgKNHkKoKSKMd01fJ7Lagl0G8EMXL608PcW+ZebYnKFmd4ms/8RpZ89ffpjOxafZ+Unltng3EwXlIWw0RYNyxPxLR/I/Lzm5C7VZzjhYkVYn15jzTHf+u/6Erlv6XoqSZbIQjhbVkHSW6nF4TWqbL6yf6XtkQCL5fAO5chTrRHB4EqtnsFfb/+w6nF7v2CNFfUttt8feseyBshCpliItsIBhKgFUjY2azve96TgfHbEAidYBWrL/EaAr39mD1njcoziM0cl2CDYfVGlgyenjrhIo98mpQprHTEF0O6HtbVvkpQYzyJ3ufl7DP7Rd//NdlTssaqkGvvtrjft/03+qnM3Xu7eUDjXrpo76FdcedZe3Fpgh1VbenRanCVIO8ccn6kSlPvFwJ/blG+nK87awuFJrtiFeIOYQg/tDX0hJzEUAMUYYBKkV2GSnSxTL+YcGkhJmcppSjFbJK3dy6HlHIQFKZtAL8rXogUOUJWpQSqUENggUtxHMYmOaCAI2jcMbarGhsZOQ3MlGnW63A3k1waOByI2VClxBKIxXvqo911fyIlF0BkvIQbijGUNSdsVxGilybSpMMFUx45euAswv5NCQ0uVJjhD1pWZElwoyBNIlHorFQYXBOlVvB+IOYjtEVXmih8eWLAH9h75eyGegUyjqePzr2saBBDSYL5oa6sVwYybB0uR1yDOCMHUAcdujhWF6nK4lXiPq8Uk3hGjx+IS2Hi/h4pznPsLba+pDebTT4Jt9fkaK+1ZZRsK97lsmWppzW3VWJOUtl6gtZsnbfPZPe+62AKsf15jfm7efOvgIQkyaOQUZaL9efdSZzkjfsdrmxUjdFqMH1/yUQk1mNoDYeld19g3VhToXkltmeZebcsFW6x1jKWtGrj2OTH0GcLPHXn77OldSyWIF130DDRzCobVP/e8K5uLFWJk8mC51Q7YnxQjUF57QSkEBof1rsl06iN8fVJ9HpWA1pxx46LD3VN0rtSKe1bYUgkeZXpGQxaAtoJFW/XT7pwkUox65uBEm6h0OJi7YutsREqs/Z9bswRkMcaInioyohKiquxWqxrUmO5Jj1s8Irmt5tim/aDx3q1UFDRdEJ7mmJyY2d9OvUcm7XqG7z0UKRvfLoshV/74NUozuzGL6O2LNeL66+v1Ee/e9v5O0YJndyTMk150KkiGRv/tyXe7ym+BY4DJ9XQCSp0jEgdkOrxekeiBWgLSNR/65HxFTZW0ntmSpttGuwkcT2O/MyVMPTzu5ouEJcp04iNHoMHtENh4f1qmLpiO/F6CJ9Eigpk3gT2S8GTeq1TxlAPO3XKxlSawV/93ayDAWqPu+dfl73xy51suBxtT+kxptmzEhAuLPREQxLygTixNvDcEzIKqEmc2DzTnM55k3YuAuuvUkWYPD3PwsKQMud9OKw960Cd+37Zd1zCir0+8U9X2zhtb0v7b+udskSyElJ1lgyfcdrVah6QBolSEnevpAv0Qpvco4+V/fvQbVzmznoHV0x3iCO5JXuhoDsL224o9CYbLlYCBNSwjId2qCrNtsgQuGH6gVn2l+5tynhiX7yiw7TebX5Iwt0rBxZXOHYLrk4A7NPoYvW+sieAmrhgsEIylUO97m4S74Ah6rKUI+BkJO22HLBcoKAiGzWmkQG88vsNKVJp2ttYkpnroQKi3dmXuTB8/+h3jLkQlA5AxabHuEwgc/PJbT5Q7E/6D09MsTQVu6nSsJ9JACDWYH74uEN0zBzI8dhW7fvD0SxiCN3Si4FdJ4iVIhxKHmK8vbYE9Xnq2rY9QuQ3NKFgKpVIdJWmDmRvPR/wgonejpGssEou0m1LwG0LTQJugnOMcIQYFf9CwCEjqiIb/bpq09kD8A7JI4RDPhuaFuX2nopAJGCQlcJgsGWgKgRo+EcVUKoQwkg+Ln9Nn7u33RhGeb5G/G0ZGxDrrDrcWTA2NDYsQNdLJV8ayQkVC3tcpaakEmpEaSanhwEagXpRiZhpaA4HXNfR7stwEd6fNtXN7Ttmtk65ze6FHtbFFCusgVr6EyM/LSrTVxXewLqmiB55hPfqqmD+uM+aLpYpANIQh/O1DxOTrS/TWB4vSH9vbMl9+E0cyTsJtr6h6xaSheTZ0DHpw9PARe33fO/b1xTc7S18gbjR0T3OP0R/uF6wExL0ckZWBapNYNBFWYOLs7bFQYyGocuYnrj9kbrR0rKesDa8xZ4QeCnE9t/d95x5NiIi9iG571zb2zZjuV7bNkR37bLcsII+Ou91ZN4NpXmP3d+bxdmXuTZ3YWWnsa1TB7s8b8lTwpn7b1Dd2qixiVi9LVrnaUGuedho4LhCnoehNGGeRpMpXD6yyrcqzvl6R5ftVPIYPpvDD8gVNSB3qmD4LuEpMpibApBb4jLb+zQJ1CBq0Up2GHpCG4z2X8bGZBRtrYNZDSyJQMEaSLFXsCGJC8CFH+WVVu4oWUmLSIv8fQgvD7IjGu6DaVHBjrm6+QScgihTuwYybJl8thIIynxBPmAgEvK9M9+Xyx6MV4n9He2goXS6oa//PVkIABs8+DjCovIpTLr0SoQtLjGPoeheBbjDOrZX/GeY+VdkgaPaXNgzazW+8+3HRA21HaW+bFptlqVof7dFYo1gAsxS1TfaGF/zHxjYIrriYiOMJ1Jy5Zo3iZAj8g6EFnvPoElYpBCS2N2VtN6dx/cy4YcqEWW0T4zOb5K9vTv/etVg5EW7IeuF9U4K4tq7WbU1NWi1WmuDtWDfl71UAb5Wr5tdQHAH4zHqgYBfCAumDzYmTIDJ/RlimnT+db2OSBrdIMPTm15Hfnc45kbpOfeKX33ayXIvSbKe+qUG/QLnxXb0RjU61tNflMzyryS6tW+c05VnSaNFw/6DIeVdaU4ySQCB2QMoTAuIrRIINpQYCrc/do6CldRYp4lpGTr7MXOyIRwQ9O7DdNmyuM8evkmZLbEG2pG/mQZ39UG3U2KZu9QYhP2Z7ov3ZMhYis0J7CaDtEXCHKb6PtHf+Jp2RwEG/tT8EENaIBeFzuYZVCVwjahyTPpo9917aONYyK1kP0auecmfz3d4NVxmMhc/lGnj54fHNEjYTXfEsBBpgEThDhHH2xWCLZ9Y1AmvwNZd7Bud6MnfFxTYE0Svd29zzCC8JkVdWBihIRS1+ahCMU4XKQKHGeyYFar416S6nwaOMLFKBseYwd/rpWSeXpJTQjpi7N+7Wfnc6cwdaUeE97Dr52OdIU8fwa+eV9pEU6UrXtnaCnX0/WjA7yz2gYjegBdovpqOxfYa4dC1MR5R55Tq2riS/EiRtSPPs7LkwVhDlIdX5Pq/xEtgDwR0pKXtPUbbKbNS53HJM4mzHiV0cywW7ylEoIlQbGtkCaTMuPc5hL+9Cu+FJwt8g9wMR1miJ4xVAiVuGeAksEdznt9CAABo7riJ8tbwr8GytrC/DxeDZIIQtU8lf5p2hyZHxcNYF47Vg/CFE4dlM5lVZybbkax9yBfSS8pUrjZc67ESIE7hL6B2b75AKlqWsETR8z5LWbLdCCM3d1eFXvREsh7xXtqylBDXFqNjWmY1/CPzDFQqdIpWQYEuE8+Y2BKEOkOeaO6zLXt/pzJ210kt++dvGXuyXv+you9BJmAEaBJ/AhrmXzS4WSIqc4SRppdnJFBcckBd4T2f/xvxJpHxw2VYilSnysjBjiouwx6/dlRomR3x9wQ2TKJUGkfJJo8MsCoI3ZNoPvtf/u2MhQH57vfVlr3MR7ZH1BSGMQlOUWKa88oPazRFTd660WAI+SYtkVzgC9Lpq2yFNlIJTlJImUpzo/VuyZiu9NdqeVuQ8gjeM7iP57wkGpsgWFsOvjLtVqkYIcepmvgBiZHCjfSyX36CENMuRuxAhhhgY9gOgVO9jCs7DPYjCSFDeOAVcYmVsrtbezKGFzOWdztxDBhIdPBDMR0SZ4/9Ciu7KDUmYoCcKcGCl6C7NCTMiCJg58fH6LXQhUJ8NMd7lXmMtwqqEi4Wgz36xJ91OjcRMYH1CmB6s40RRe1UKQ3dmlx8ZQWZkvFSK2TFvLICTFdnO2o2XNlsibX2KqkN+fcIdLn4E/ZNzKBsoHl21MU9cZVgIsRgSfI12jmJB4Cw7c9IQystUwAdrjhdQe7UI51337XbVVfnJuFlgBHakWNePKyCCF8be3RqmPt/0fuGtVtXWaXvjszJnywepxAes2tFyqVG7gtoUWDXKtcUz2zx7Jkx2hYyPJFL7Qj/t8Qvtm7So4IYJnmDPG1XPAbM8AXoE2nWXRlCuV6MicE5Y0thZDsUBJkh0eXdqCCYEDwY3rBLQ1XtGLnSlhMlqYg2ggLTzEgweSqf/7TP3Tn8F/gB8CHQNCBRq2+Z39552+0BU1CjeIibMbQi1cFgvV4AKjr6/oNLe3lVkR05VuR0fPzO+r00eGC9XRueQVgLqKLQ0SvsNoL1dLY18dqrdsZkSKa9XS0OjJ9CVTBZvQx2sNVdj65jE46sRsv6cfQh0MwighWf2jraC8lp7cUu+7co543Z2jFY5aRr8O1UFqEqk3W9RzQrKTFOQCoLbWQ0LGfsNoM11VJ2Fzppr4HOxUCDUkBrWedAPHFHH/OZ943dnn4zOXHcdM9vLP8XX3C8PH/+sDwEfAp9AIEnbMM8dkmjHTlfZdu3iWCszfWxEmBj8Bc0oWddwjH0i7prQ1wZJGLiamIu/WHwIhAoEfOYeKm/CH4cPgS4AgUiViZ6llNXJYt7LD5bY5uNlNkVmd7R62p78Cm2qVOP2hhiq/SM6i7GfUCQ8WyiTyTErfZxLAWuLQCq2oeXTcP58aLxAdi1co812MEtfkzFRpvleeg+tfxNhYfVV7kJjlg2Pgg10KFSTqUI+VC5sq0BY5h64x3zDTw+toz5zD6334Y/Gh0DIQ2CwtmWePaSXrT5Uah+LwV+rGhXjtXcEO0BukEZPIarx/ZVhoD0jmtJOnTplubm5VlVV1SZMs7ZHnb11apO9fnyNSgVX2i0DZ9otfada756XL4JzpbHC0Pfu3Wt5eXnuOzo6tHzZMPDyHtX25MkVtiJns9vP4UtDFtu8hJEWba2rgc/c9+3bZ4WFhbZr1y4rLy+/Erg69DxzL7By+9mhN2x70QFLUYDv3wy7w0ZHqlpfKwUbmPqRI0esoKDAtm/fbjExMZfMjbUwbNgwi4hoHZwv6bgVB3zm3grg+bf6ELgaIYAvfVZmoo1Nj9WGGuXaornMRqbGWK409t15FTZYpnh2fmxqO3jwoC1dutQxjlZrxArqq446b8uTjtueiHztD3DO6k5XW1HxfutTQVW21rWcnBzH2Gtra23btm2t66yt79bkSuPO2duJBy2nZ6nmWmcv5p+1w0UbLLr2guukJY/lvRw7dsz2799vr7zyiiUnh9bGXlQMPJlUbcvi9ojFa3/78nx7OrvORhTJ997KzeuY+44dO5wA+swzz1zCwOuUNpKWlmZ/9Vd/dcm5lsC6re7xmXtbQdLvx4fAVQSBkamxzjy/Wcx9jbT3a4YkadOncpcKN3Z4XLP2hBg4cKAtXLjQKioubNfZGlDWiapFlG+3M7naf1z7HUSqeMu4YZNsYlymum0de0d7PXv2rM2ZM8dGjx7dmmG2y701keetrPAjW5a3zapktYiIi7cZY+bYwKjerZy5OY39zJkztmDBAhsw4MqlYdtlgpfptDi6xk5kawOyU2z9e85i+/S2hZPnW5w2CmptQyPfvXu3XX/99Zdo7tQXiI+Pt6io1j+nteMMvN9n7oHQ8H/7EPAh0CQIJMjHPisr0ZZog6d1R8ts9eFS21tQYX0VHT9WJvrmRCqnp6cbn7Zsw4rH/v/tnQd8XOWV9o+t3qtlW7bce6XYGNOrqYFAgEAKkAJJ2N2ETfnCZjd1d9PLppDNkhBC70kIvRtjmnHBuODeZLnK6s2SbH/P/5WvfDUeyTOjYlncw09Inrnlrac8p7w2Y9sUV4p0fdU2K1cNooHjRrnypJ3xvWdlZdmGDRts5syZNnv27K5scpc8iyI1g3eNtHN0TkKD4g04BnVX7n47f8Lx7sz3zvjegaOxYE899VQbO3Zsl7S3Kx/SdKDZ8rYOtuW7N7gqfIvkey8fGmfnj5eA72Q64LZt26yqqsrOPvtsy8jI6Mpmd9uzAuHebUMbPDgYgb49AtMLZRVKwD+8eJfds2CHZSjv/bIp+TYk61A1Pxk1tlwpc/PWV+jY3wN2xphsmzwozRW96c7RIR2qMD3PFTDhcJFH18xVffWXdHznOa4MaawCvqX6HRXwOocAdFffEd6ct84ZEPvVxvdVqY1+37vyBfvUxPN1mmG+rogtuA74ubf2m/FM6KfDxhREx9kWnC0wpniIm3fQmmvGn92a9x7L2NN3fo4liizi5VjqUdDWYASCEeiREchLi7fZipwvyNCxvhLeiYqkm6ZAOnzyHm2r2mtLBdfvqG60l9ZU2MNLdtnWir3e1936mzKrVBjkvIbrdCZ3gmqsc4AKJ4Nx0IxHHFVcrqNF96mSWV8gfMQccUqu+8k6He+TE+eo1vpOu1e15kuqSyXqWhQT/s9pcdWC73uz0I5mTlDa6DcVCy8YcZJdM+5se2nLIp3n/oo7FtZ7FvNfrPrznO/RVymw3PvqzAb9Ckagm0cA6H2GUuKmD0l3Anuqfo/MaxtBHi+BT4U68t7799tl5XVNOqWtZ4Uo7RyvCnUIeIQ7P03j9lm+KtYt0AlpaytKnCCgJntfI6+WPv26T8L93g9elMA7y/bub3SHyZTp4Jxrx59j6Uc4VvZYHBdO35yjssMAFQ+vesUhFpeMmm2bJdRf3vyupcan2I1TLnRZBcdi/47U5kC4H2mEgu+DEQhGoN0RGJqVpMI2WYrLNpfbnpHUlqXkpSVYpmrPbyyrV4CXoNIBqTZIln5PkyfgPzHhPHtIVtwdS59wp/sBW3PKIT7ZvlrBzhPw0nHsASk2P3v3AWtSwNnC7avsKsHV1J3vdJZCT09ohO9zAn74TOeIwDWzaMdqK2+qtXel1H139meENrVdrxE+9pi4rO/27JgY/qCRwQgc2yPAgTFzxufYCUXpNjwn2eW4+3uE5V4nS33ZtlqXMldZ32SltTmuLK3/up74GwHPaWhYqu+IuQPLFuuo0NmFU9yJYfvkU90s+DolLlHlanOO+RPj/GOKgJ8pXzQ530t3r7MNldutQMfhnqEjUCnVyhG4fDZInwFpM1Z9hRDw50vAx0uQb6zUCYFyy4xR/flTNe+JmmvOud+ovo9RnAKunL7S80C495UVHPQjGIGjNAJFKmozNDupXYGQrGI2M4dl2k753V9bW2ErFGBHXvzRECAtAn6oO+71gQ9esuN1JCiW+wYx/Zc2L7Rt8kFfNfYsHRPbu/K4u2JqEfCciMdJab9Y+IiDrIfpiNQFsuCf2/S25qO/fWbKxTp05dg93769cULAnzPsBKVGjra3VMXuEwouTJYgf37TO/bsxrdV0a7QVbXrK4KdcQiEe3urQZ8TYLOrvsKdg8zCJ+gkKS7BaXdlDVWC9VQYQquBqNSsxDSd+51qe6UB71KAjrdICGzhhKKjTQSOEDhEIImD4BRNw4Jnw1fK78aRiC7ORg1Hc0+LT7ba5gajn0TX8h/9y1Q/exPVKd2HNjI3XjtTElSsRP2rVaAQ1aX4jn7SL+YPTb2ysdZdTwBOFv3tZKpMbxqTnm6LE9Legg/zckrWjpIv/ozR2bZOp8axX44msZc543vlnk1uXTy14U1nwS9U+thZRce5I2L7sx/6ILEPQCvWVmy1KQo0vHP507apcoct3LnKbpl+heNj7KO+SOx9gil31pU5nvGLhQ/beil17wvJ+PU5X7ZkWfF9iQLh3sFsNkggvrJlidNq6xobVNIwx64ad5YNSRtg93zwrK3eU+yYw9jcIvu0NMGMxCLbLQH68OqXnW9nkEogfnrSHDsxeXwHb+mZr6ok0J5c/6bN2/qeixAdrtrLV4w5Xe2Pt4fkh9tUtd0pLZwBfa38cMnpiS7C9tHVc+2DPZudto+/MjOvdwn3XXXl9ph8aQt3rHJCfFL+KLt45CwX/fz3da8rGrjMRUyfOmSKXT76NGeVfFC2xf62bp4VV+2yE2TJXDXuTAn3QT0zER+ytyyTlf72xkpL0eEy1TrnfUReik1SKlysPl6nnGoMEdCQpyZEI46IFp+rfbBAteezpXifqnPgC7VXh+sUtdOHHGdD0gcY56GX7622wYKpj7ZCi3JKv1FEvXFzymwM0Dlnm7MvVioXnBE8WdB0bWO9yyjgfPTMpDTbXLXTmvY121CdpocBcLSotd9S0D2FI9Z+04fapga7Z+XzVixlZrmEPClz8Afm/8SC8cqmiLMPyjY7w2aI+h5ruuTRGq/Q9wbCPXREfP9OlKY3JX+EvS5G8LcPXrbTh89w+aPpCal2ghbDY6vmWrWsxhmDJshXlec2HlbgKEE8d6943mYVTrZhmQN9Tzx6f4IgTMob4aJEX974jl0uv+Po7CFicwdsbO5Qe1RBRqnq77nqY15ylmOeA1KydehEtj1d+ZZdNOpk5487ej0I/+Y8RTyPlx/1+Q1v2QoFR42WL22EIn/zUjJtoBjzo6tfdYeGXDn2DFnoaU6ZIf85qX+CNPhydy/PCKh7RoDjYLHsq3QMbKGC78YpoA4rPhphjGL6ngqSLNq5xiqEMmH5k+JGLjfMfqLWNb70SGH+svoq2yGmfnbRCRJuk92+eHztPO3j8ZafmuWE38tbFjsIGwU48yjIN4Q5gubNkuUuXY0yuiCFrHUUcgTvlPyRLuUtmpkjzqBGiNa1E891sQbwp98sftxB9I37m+2P7z9lb2xbZh8XfxisfdLT1Li/SXO9zt5Qv5nrAxqHBO3VaQWjXFzAxNwRNjF3mEtrjLZtjGeSrPMvHfdRO0kpgihtL25eaDeMv8D53P+y4lnFI6y3b570CSl4+Q6VjfYdven6QLh3MBsJgrAm5g6XhXuG/XXNa7LKK6Tt9ncBKGcMnWbnDT/RHl7xnDt5Clge7ZJ7sCqGpOXblaNPd8Kxg1f02Fdo4McVjLELR55sLyvvs3xvldoa7/pyjpjcK5sW2rsly1T0o9nSVa4TihczQXsdpzSii5Qz2hvcC6EDBpM/efBkW6LiFUvEFKqa6iw5IckJ93OHnWhztXnLZIWhxBAsA8EkUdxOKBjnAop4RkDdMwLD5I+/ZHKeLEGV6FRVu4zkOAmnyEX7RhWguV8FWAiAGy6lbbIEGvAqQuqu5c86Be0bM691yFKk3DhR+e6kRKVqPaAAwvSXSHlAgG7TaXKcKIflThpVllxRPU1YmFjXjwuRStfaPF7rFD94eUONPSsf8QpFfF+j3PVRQt9Q2qMhrr9h0oXupLg8nRb3gvbHClWxq5H1jmBbI1RLVooU+Zwet9pBSu4VP31aivpwGUjwq1S5B4HR79MaWLVzrd12ymcUDFcYk3AvUBzFrSdebUVCZnDR/eH9fwil2GHPKy0ORGOR0L8RejbxFsfaCXDh1kC3Cncgs4q6ZnuvpMZtaPY05SlJjVmnoyFJn+FYSIJxeitR+GJi3nA7ToE3y+WTe3PbclftCOt9xqCJdrcYDMcrsjBzZQGySd7VIoEJAe30JuIIyGnaMFi36wW1L9m11ikoWLnT9fmLmxa44JpPTTjf0iTg8dHD+KYNGGX5YgS9lVA6ThB6UiCG9IEY1GoxqBmC29G+J2juHhfzwhq4WIqNJxgo3jEL7f0oMO/eOo7d0S4K2gyK0fRlju58/0nH7FFKqTJWpAAwFE6sOiK771nxgkrMthSgiZNvPxJiH2ABA3ETJf6C1v1WKQtT5NI5VdA0e3yMUC180lh6PUlY7I+vfc1uX/SooreLVFVujk3V/kMxpa0IvB8LNi9tqLS9MRRgydVeB53AEGEMUSIa9jU6YQ4/2yWlhsI3I+Si6ElYmpigOzTXdy590i4YNUv9vsBGZQ92BghIA0bWt3dvdEoXYxQL4Xph/aBaohwyzmkaV1AQkB+UnKvldoWPe26AWN7TW+7pVuEuY0n+3f02f0OlPbGs1JJUfvKWc4uMspW3PbXBxkqwf+2col4t3Jlk/HLnyQp8q3iJrN7FdsXY052Fi0a5V1r2GglKhMdZRcc7nzv+nJunXSaFpncF5QBbssBPk//5/uXPCX5bbmcPO94xCVCJWsGfK+SLW6XzoKcrgnhrzW4XPXy1mKrn4+wtC9ffDsZ5NJq+ym4uUJ8WC74lKtgFBAqCLZfrhKCZLWKKwJBERjfKp8g1fWET+8eir/yNJfX8pncdYoaC9rFxZ7qodk/goNDBiEs1vylCahB0oDGRkH8tA/kPEyLw1RM/7pR4IP+FsowR9FhwnfHxRtKW0GtQuO9b9oyg8wa7RkV3SFVr9XvLBsLa/qQi2kEYYhFy3vjx3j0au1kS6FeKn6HslNTssQwZLSgQPR1gSgzEfcuetiwhFDdMvsjtZY9/YmVzJj2xP/3kf6e0bCzkPY97d9eXu5ijafmjZewUKoJ+pQ3NLHAKnf+6WN7TW+7pVuEuWWLZKfF22dQ8HQVZa4+/u9MdMFHfuF+CZL9de+JAdzxkbxmM9toBfHeaYPhsbXaEB0ICjf4dpVRMkIW+TZviFQl9/Hcr92xEp7GZ8t/1RoIpzpZ18oBiCIA6CUgrlba+qqzYRsuHWaKjEt8UEjEya5DbTBmycibLp9nbCT/6TFkcL2keFu1cbVc1nClrbLdtV9+GSqCvkzUP40ySe2K9KpINlJU/UrBmQL1zBEpqS7WnFtluWaifU8ATwscvmGg1FtZ18g2DrpHWFAtRqvR8Ke4UcuEZ9618UYetbHA+WHKfCbZk/fsVgljeE8k9KDT4gJcLfbpg9GxnsbcK9oMPwO0HAgWq1lk0DeXl8jGnuVgU+kf9+fWVW+0uKRcU97lWygUBhd2tAIMc/G3t64ra325fmXmdU9RDBSz8luBklLEUQfWdpZEyBkAnUBxQ9P+qmAvcMT9/90E7QxkToESeG6+z7zpa90eGY3WidcByU3VK1P87d5hNVgnKfyzdbfcu3GnflAV/zrgcB9F34vE9citpYvj7gHG3K9Jy3tb3baOiy1loNys4I0mWw/yS9yX0d9gCQfJo/fkKROuNRLrHeAWkTFKg4CYCdqSsrKvY5hjbJyZfqLKU++zt7csdcyOqfKos+KMdLRzJOOI3p61FguJXC31A8VonIT5cSsplCoraLet9oYT+2vKttr2mzAUjpRzFSOBI+vRhvmaD1uRGIUiZUi5HaA6B0j2qUhrjYilqrwpJKxa6tE5ziq+Y1MdoCeGJNQwj36kgu7e0H4jNphQt77lb0dXvaz3Fai1G0x6sdd5VpfROIHn/vvMC7F6ThUsKHy4L0EKg9ViJ2BoUBGJv1misF2jP5CuY9gS5IFfISv6z0uQwXLyMhFjfc6T7ylTXn/ncp1iYicRU+PZlk2KAQOLmFr/n+BSIBae94aLoDOUkZTjlEKXmHblbP5BRRgwD2UJPb3jbKTr1modjmbrVcvcGBjh44sBU+8KphXbLQ2ssSWkx1KROVHUrj4DDNuxpsEr56KlPnauylb2FaCWR1kSSv6RI8yeVF4s/Dr8chxM8uf4NWyVN9+/r5jvh8U/HX9HGygAypDJSY3OTC9jAWggl+g9zYrMWKhivu0ph4mcclJoraH6q/Z+YA20m0p9CHucNm2FPKV1umTbTUwpq2SOr6frCC9pEIaNll8giJrZgqPxX+OtDCR/ZZilB4pEO8sT6725ik46UJg5jehk4V6luMGxgR2IfgHgXCJEgWIh2naggJc8igXESQAXDpD+kQoVaicwhjAWFDl9+Z62m7h6PY/35HORSrb2ATxTkzB8Jz14pViU5asSvlRAiav4Tky6wIiE0nSH23zlyU2G18UxqITyomuT3qCb79TbHxZ609/yGTZus9MknLamoyHJ03nl8TvRFcDiilfPnm7U+08QjQq1X1h4W7kIFvsZrTK4UqkBBmq4g6kV8SpYxGTTDNY6cpPdnxRP9efkz9jm5AQYTPd4OVc6bZ+WvvWZ5l1xi6VOmWL/E6OIU4CXl6necEBh4RRx79CBpqpWTrkA7KVmrdq+1LKENN0y+2KbJgOoKItCWtD8i5KcIogfNYEzpNwRa0JEFX7d6tW2/7z7Lv/BCy5w1y/rF94hIjajr3W65e61A++M0qAE6DnK3KlVhvXMEJMTvtzZV2U9e3mLfeWaj/cezm9wBE+7LXvI/JphAkwIx/nnKfX9+0wKbo5KGBPWcI1hvjxbgPUqlACL0H0BRJ22cylc/XvCA/fv8P9mvFj3iUlH83QKOW12+Rdfcb79d8ler39e9GiNQFPmtSdLcCaJbKq35bMULsKlPkWthY8V2++vquU6Ln5g3rLWpdSpqg5/+J4KuvvPGnfbzhQ85WL/1Av1BitHdGge+v23eHfbrRY+5LAP/Nd31N3MBNF+vqOdnpX2T6kZpURg1MQRLpfEj+IdqDvGzQlhkBODdsexJ+8Gbd+nnLw7N8LcRheZt5UT/UnP37Tf+pOpeKn4hyzKg7hsBLGpKg9Y27TUED75vj4j4njVokiDjPCFoOyxH1idoFEpAZ4jnESFPTYRCCTMOm7lezB3UgPzoZbLuoP4HPLXw0Nsad+yw3U88YZVvvGH7amKzphHmTpCIH9ZJ0YAveIRyM0HtIf1tu1wWzVrj0xRjkqO93BU0VkG2ZBCgHBNVTibJTVMvEVS92xW62SHFlzb0YxoOTYV7dc3SpbZTAq5+7Vo70NwcdXPIXsAl0iQFmpx7lDePcEPAT8eplsjaPVtcDjr/DnVXeNdH+5uZPFF9/sioU5USOdwp7Sh4n1ffMQiY93qhBMqB0n+HU8OWLbbt7rutdtkyO7Dv0HwdfmXPfxKuvV3eimYt1mdW7rHFxTX26yvH2HSdEnXPm9v1WZl7FzJ+T22TXXfCQLti+gB7cVWZbShr6PJ2dOaBWHJYbKcPnWpVCj5jQc4eMtkFnpwmn2BOaraUllItRDbcoYp05I6yETlLebaYxgtaMAhAP2FNu8Wq38BjsQTK+J93pL9RQMjF59znamnMOfJdEoxGJC1tTFCFt5rGmsMCaxqEPLCxyf09c9hx9q6qWq2SYPSI2tz0rVob9NOTL1Au6QTBaUuUTbDSu6Rbf8PcyeUfo77VKnuBdMTxEuwUHZopC76JQBz9wCCJmofwt2GVT1f/L1dgEdbRW7Lw6YtHKGhs7YtUHIe5JoNgWel67+vgdzeMAII2TwgT7hR83xxL6hFCcID2G1YW/tcBuo5aBQgfCrAQWwEK459D715+M5+gMCBMfsLvDhQOTA3xPAI1b5CZ9s0JAAA8TklEQVSAR6F4UMWpFpetterEJmvqL5vPJ4RMjH1fdbXtr2/QEju0dvzPP9LfBLG5wjEyXFcJeqdypEcIIdDDooyBrs8gR/jDCSIkdY7Ka0R783c4wkf/nlLJ1lVs1Xo/HNIGTcS15SFWjDF74qaplzpf9N2rnrf1tTusLvmA7Vff/XSgsdH2VVYav9t+47+q/b/hl0Sxm4Qo/UCYegRvBE2j3/HiWyjwAzX3tJO9u0xuDFL46DdWeCgxz1QeJP6mPb5KHJI7PAdIT4R/n0qFN0+7VMbPQnto7Su222qtXn0PfQPKzL6KCtuvvvc26nYMgfzW1xUt/6MXt9j1MwfZJZPydJDEfvvSg6vt+89tMk6NOlGHTswekSX/e5z8LdJQBeEfjZOjjjQ5LH7qE/9dOe8nyXIA3sYfT/DZSRIe78mniwUMU/CIDXta4VS3CRF6BHNxUIOfWKgscGBlIkLFNfxfd/nfMIoCbRAqM5HbSREe8mj5HGsFeGqvrCWQCj7zKEOWPlou+e/A4AThYeG0ki5FAfrY2DNdVDq+zOWlm9plOK33ddEfMAJiI4iCJ0jw+IFjndW1X1uSOIix6tsI+dVQZDxC0cFq4SAJSnKuLS9xgTb+OSTtcXrBaDGUluwHoFOYcEDdNwLAwzMHT7TFYszz5W8FHTtBFpufWJvMOSuUHUMK6j/kIntPwp15vnnaR5y7yb+GEfoPq7DRRiEv10sBZa10RDzfCXjFo/x5xTP2wM75tjW7xA7set0GlA21CUIMuAZ3j/vtHnZoz3T07NDvECrniH+8ItcfRVzwe+P68hRRrmdd8nTiAiDQNFK6XhWauFWKzTUqTsP+8/OY9ZUl9qf3n3YKAyjIJ6WsUK0RZaEjQsCzV26e+hH7/ft/tye2rbVtg7fbgyWv2y2FA5yF7+73+s44xED4/lGc39261NV5xy1C2zxFg0dihfL0ljHu56B0+v3K5kUutubS0afYTZpvv8uTmJs7FYH/gZSe/trn39cpcFjnrtQ2D+2AWgT88e59v1vyN9tSu8WqCirtr5vm23WTzmudE6/H3u8OHtnjX3Wr5Y6M2qPzmx9XEB1wTpYi5wmwo5gFZz+zIR9YtNOKBdfnpsbbouJq++nLxdYshSCaQhc9NWpM+IkqWXiGGA0FbFj8TCow98Wq4HaK0lYm5Y5s0xysgBQJeAJC/qg8Tsi/aL2L+azleT2zTLBQiO4/Q8rK6fK/I6zZOGjGFwueO0XZAaHR5PQFRvP2jpX2p2VPudQ5/5GJPAMtm9QSmFCdIFXGBki8p4iKeqdIaTlL80OuO31ibEdmD3JV9qgaiFXoEd+htW8T1EmxFFwUaYmKxvVNAyhNoqpkEZBHMQ0gyo78cN6zg9+xjwC+14+MPtVldrwjl8gDgkdJYfRsJ6YHSwzoGhi3Sb9ByFCuL1MEOG6TlRKOodY76A5zznyD0kRCrCGCrUCCtu3dY1sSKu1vW990QbSh1n8kz2vvGvYM7b9EyFidrPY/Lv27q/lODrhH9PmA+sq5F/BP/NEE794g5WO41vjrCuwlrdUj0IUlsthxuX1ewg9l/K/y29P/SAhBSDwO87G2dqttTa6xe9e+5MaWYLeuIObjClWQPEc8dLOQwN8sfswIqPRb2s1t+n3AFauCH9845SIH2z+tw18IgPQTVvu54gM3T7/cxUItkc8eJDVSgtedVjjNIR2rG0tsS2Kl/WHZP5Sp0FIUK9LnHK3rutVy11pVjni8ffGUQvvcrEGumAVC+3Sd/zz6unHOQOXISKx0ri1QPfMz9N1fFmy3J5fvsc/P7l2pSmw+Nsm3Z19vo2Rle4RwuHTUKc56x7oNpXgt3iJZepxARXrP3OKlSkE5NfSyVsZ12Bfd8IEHu33zpE86Yey9Anjz2gnnuKp74dKL2IjkygNtvy6FhQpXBNzAAGG4/fQ9xGEUQNcoDqMk7HuKkuIT7ExBarQPJMQjYL3Pqp20H2vdT7QbZYdiIWul7b8sa+BkITEgDx4R4Iji4/qtbAmUNVAOxjGgrh8B1tNUoS23zvi4/UXBTaSIbRG0SpEZIOmtYtwvbF7gECgyIhDaXE+pUuBb5pJ1isLpJ9A3UBcqv0VDtIf1kCyX1X79RxwG4DufdyXlpGSoPOrlUjgTFKj7ln17/p1uPY/OGmI1zfUufgcAeJwQA1BB9itHl+LWm6+ysQgkBLGf8FETN4A1z0FYT+m5fn++/9pwf7PGB6Soapv6ur/ffifsDu72cJfH9BkK97dOvt5yZQy8qr1169zfOUUHJJDzOghazpASQ79xRSTr56yi6bLw012kfZzqwnNUr5/Yq/DmXbUVDmFBQYt2v8JPOP6XMrhSqeQKaHTj4H9Pb/27LZfrhlZy3OPUwrbwDxWrwlWtGpabpNz3AltbqlKI2w75m7qhWTE/EoGHJepnGggMIs7xAYbb7AgTCnEgNAlQWVW+2S63w4U7G6ZrWUXH3aQ6GxuA9nvExuEYSKyCcG2hL2QJAP1hteBmCCUC2d6StYVFcZFycgmKwbqCOXQ3MYIFei8CwN8vLG02dzhiziiScZmgyjr5+ziEhqwFv3CHKaAsXDXubOdmwCrAcomWWYR7f/BZ+BFAYFFaGH/seypCtE4uE+rCE0kPmnK15gJYHKEOtMt842+/R1HeuMBa4Ne2K5l9S232WNYiGSaXFZ1izaUNdrZgZBTXrkZwWL/kYN9y3JWK7zne+dFZi8TisDdxlXGAE9Y0/IbP6OGja+ba0xLalyo/3r8mWdu4KFx/dSExMcQFUSMgGqJw15ptG2zeBwvssyddqnGnxv0hvhHNs8JdS/smK17mtpM/bRcKOSSuBUu8qqzWndYGbD9BpWPpN0oNc52pH9wwoDpnCPEIJfoIf/qVqv1tVuoy7sRoOSzr5YsqSFZSUmzFu7fZV0+4Ri7UY6OCXbcL99ABD/fvJlWxW7a9TlGv8bKqWgTAjKK2fulw9x2Nz2id53v1v99tnoM+Wf/npNesUR4uwgaIjGpaU/JGuWNHyTGnJj3588CNBLrUyie2T9f1BLHQ/Wkn3jv9iov3Gb9dipv8euSHA4Gi6BC8BgzIoR4UkkEgPiKfJoF25wryJy8XJjtn+IwuZ4T+tvn/hqG1OEwOfcq8eajCoU9NY97kgq/q5bvEtw7KwsEz+O6oNEhhi/FiZE0KmGKOsdhSZQURs+AFXvmfF/zdtSOAgB8lZRI4uXpIvUOUyHBAyeRYYoS6fx6wZGdJIXhEByGxvxBCh9eciG1/EcB2fsZUK92zyi7PPtHFafgVyK7qOesMYyFXOeeu0qJ4CG4H1ibKBKgDlivrHOJz0reIMaGYFtA++9Brm/ebY12rdNTtZXJ3oMxGQ8SlfCxnljWUbLCLB5yoErbZUQvKI72Pdg4TwjZQsUyz5T7DrQc0j3FAv12wo+a9pdctqAkxNqfJHfqi0DYi3mcVTmyzHjLEX0+Xi3Gx+s7hQJQSx9qPlHjXTMUkXR4/XUp/s51XeIJcy70nTbujfvQK4d4oH/sjS3YqCn2fjR6QYicNz7BLJx/yi3bUga76ztsoXfU8noPAxsq4e+VzLuaA9CsOaSHinjPFn5DWWa8FTJoH0awEgKRo0y5WyhaBNe0J2a5sYzTPIpDssTWvOphrVM4QF5xyrvqDcH9EnxMUyIE68wVbV+sAl8fXVOmkuUQ7b+RJzsKI5l09dS2FKuYrb3ieoEBK0w6SgvJRWSkoLhxE8/TGt1xAJAfqoKRRUGW0al4TjOi3kHqqvR/G98BgYe6RWMkoAVePP8vlaRNtjl/9cOHOE6O14Qhm629p/ZIsozHBsvqnOPSgO+cDdCI3jmIrHRs6KDqgiV+Sb/nfXv8/peVWOdjdX2t/gzIO5skfT6of1i99wdiIlO+x1rP7p1p6g3LR41pQku7qO64FYmesrXfhsNehDGDtf/mEq5xxsUPlwJuVqSCwuJVQ9qjoRyltghSJsI+WaE/OgRTL2JvgFMroV060b+ya63uFcOdYyM/MGqy0rGbL1cEyWfLTE0UfjiJdjOHube8zFvl+LQp+/OQt/lhPCGIRwFhuUrTpXsG9pJohANFA+e4U+crIG+dvCqd8QfAPuZ74eLqjn/6+xfI3+a/XCRKk6ES2ouuz1Rei7LGDCF7jbGTyY4l0xroCgEDr5j7Peojlvd15D77Is+Wjn6SDKRAeufJ5AucRjYz7gb5gBZENUan0wMyENMdsQVz2yZr3z1O4NdSdbQ+efWgECDpDgCGEgKqxrqhnQK10LHiYOgcgMbcULSEdDjQmJvJMx5hu7tqbUKy3q4ocPAP4HssXhAEL/U354DkOF+v3D0ufcChHtaDuh5TSh1Ak1S0ShclrsQtm7CV9p39rKoqdywYljtP9CACmGNWb296XATXdKXbwVtImSZWDN8VqdZNx4/rvDcYx8LvLhDuMrr5eBQhCBCRjEK+qPUlJ7ReYiFOQ3fiCVN0rv6z+5ll1dXVOs/SPIc/mHV1FCG9+dqgAxde//nVLT5egQiIdJNo9RRWXbrnlFkuMsuqS9wxgRTYSws5vibPh8B19UsKSIB+YEsKkNxOMAPivRelpScZhtAjOoaoeBWMIVhrWr3OVwnpyDFA+UKxoP+QJa8pbAvfOlstkhjIkqEXP0gAJXblipf3m0Udtk6qS+YlxWatCHpXK+Q2oZ0cAdwmFpdbKN+0x+lOVgsoeo24BmQ63qFQ063eLqtuhDFBCmmCtaCBq5hj+5OcTPdvTtm/bXLlThVaec0ejkq8N6sQJZ5SNfVTV9Ubrb8q5rivb6tb2amUQ8G8OTPG7M9o+Nfy/6HOz8rp7Q99BJ+7Q2fME4GXLaMLooFgVqcR/1slyNRQ/kkBfXrrOHR+bk5ihbJlZLrAwfO86/hTZ05vmvePWtnzbJcKdji9cuNCuv/76wyYeq/e4446zb33rW0dsjyfYly9fbj/84Q/dYIbetHPnzrBWduh1kfwb4T1kyBAbPHiwrVy50i1+/8JFoCcnJ4dVWCJ5vv8av2Dnc4pinCFoF8vxWIJ30YQ9AUg/UOSJJzhTkav0KbSfXHMskL9PtBdIFF87wgDlq6XfLT1BeLNeVqxQOdsQYi8MGzbM8vJ61q0U0owP3T859/ujSiGrUPEilFDgWHyr+K+xUAny7Cc8htRMDoO5UGWjiavI0k80lJKS4vhFamp090XzjmiuxaXHCZQQ8QfA2WQOFKb3s0mC3zEuzhx6nMbmNGfBw9+A8bHwI8n39reFPg8dOjRmQ8f/rM7+TebKl4//mKzp/S5WBuucGAwycyYKoUlQ9PxFQyk6NdXFKDDPoUG20bQhR+WECwsLVSL32MmO6bRwT1DKxtSpUw2hu379+sOEO4MxaFBLqc9IBxOrfcOGDU5L9N8DA2ZxTp482Q20/7tY/s7IyLBbb701rFLC83hfVlZWtyxmBLo/GjuW9veWe/BJ8dOXCCUFoR6OWH/f+c53rLa2bV4t17Jm2BOs+VjdOeHeGXzW8Qiwn0hTLTqg87qlcaKMQeQ1u4BO+ZonKrKeg5OA62OlsWPHWn5+vmVnKtpcvMi9rIOHuXKsMnA4qrQ7CAUFZBAEzQX1HnwJMT1Y8JSPJhgOV0VnaeLEiW5dD8jJPXLfNTZU6nP9ZkK6mFDgJuer3+q4v9+4JihBjeHEmRK8mUDazrbgrLPOspkzZyoVMrJxZN6Pdp35Tgl3GNmAAQPs9ttvt6ampsMEuzefCNFICYaIsnDXXXe1ewsKQ1dYRljuo0ePtlGjRrX7LvrIT0DBCHgjkCnGPmnSJO+fYX8H6ybssHT7h35Gz8tIf6KyHWlbXXFUKNYrP/uk2FW9+ZYlDh3iDosJ7Rh1xquFZsZnZ1vyiBHWrwO3ZOi90f7brbWQm7BSyVYBGQSF6grCbcnP3q1brWLRIksXIhufdXhKHWV4qxYssHTx8QQpQkdSgGJtmx9N855BQCUBdKEV7rzvY/2dm5tr/DQLtdvz4kuWffppFhdGriHUy196ydKmTbMkIcLd1fdI+tHpWcdKGTduXCTviugaFioLCF93T1DAhHtilPvWO4I1c+zMJ8L+SGVWY+lNf7nr9m7fZqX/eMLyP/rRlnryGAIyGA407rWd995rHKRS8PGPW/8Irb1Y2tHePd2JpnHiXeXcV61q/us26DOfabXOOQ2uUQju9v/7P0sSfJ8+fbrM6u5BLNrrNy4JfrqL4tLSrH7dWgnwF63oG99w8+34geZ4nxDnkt/dbgfqai3zlFOOqmCn/50W7t01iMFzgxEIRiAYgd46Av2EHmacdJKV/v3vtun733eWGhZrowT+1t/8Vlb9mzbohhtarPoeFnDdPWZxQi4yTz3VNiqOqn7zZh2tqCwj4eM1ixfZ7kcesb3FW23ML38hqz66XPrubndXPB/lLXfOHFv5yU+6fqYff5wiiputfuNG2/jN26zsxRdt/B/vMMboaFMg3I/2DATvD0YgGIFjcgSSFIybffbZVvyrX1m1YOr9guqbtm1zZWmzJPgzT55lcX1QwAE1Z86e7WD50meesQM6CW9/TbXtuOsv1qzjbof+y5ctRbEJ/Y4CYtETC4m+5V96qRXLHV315htmDQ226557rFGZXAN0pn3GiScedX8749CzmElPjHzwjmAEghEIRqAHRgDrPfeCCyxNAZac4b5fzL2pvNwUgGS5F11kKXJXdlcgXQ90r8NXAE8XXHedxcuF2lxe5o48bdy1y1B48j/yEYuXf7qvEtZ7wac+bUkFA50bAuRir9wRnD8x+HOfC+uLPxpjEQj3ozHqwTuDEQhGoE+MQKKCpvIuvNDB70Ss84NVmyWfaxwR9X2YMmbNsuwzz7T+XmCZLPoBH/uYrPYxvcJy7c6hTxk1UvEU17QGSjLveVjtJ5zQa/oeCPfuXAHBs4MRCEagT48A1nvO+edbxvEqF60gOyxZmLyDpfuYrz10IvErF1x7rYsKPyDBnjpmTJ+32r0xcNb7Jz7hMiEOaJ4TlBVBcGG4CHrvnp7+3ad87uTAVyuohR8iGEOJ7ylMQ0rDsVSMILQfwb+PzRGgwhW58TWCcNsjiiaROkoWSkDHxghgvQPDVy5ZYilKe8Nqj+/jVrs3M5713qBYg/yrrmpRagRbfxgoRSnUZENs/MlPep3Vzvj3qVloUGDDgw8+aPcouIEyiVQL8xM59GOkXf5KATAFBQX+r4K/gxHo9hEolz/2vvvus4ceeuiw6ousTRTO0047zW666SajWEpAx8YIOOv9vPOscv58F0yVIh7T0ylgR2uksN4HSKjvLZFwx9euNLkPC2G9D1TcARHyg268sVdZ7cxBnxLuWEZbtmyxJdKgpyvHkpKBoUQBkqByWOioBP/uiRFg3VEABeSItepHl7DmNyqdhqJQ4Srf9UT7gnfEPgJY70Nv/VdLyBMq2Bcj5DsYGqz3kf/5gw+V1e4NR7Ks99Gy3Cnog7DvTdS7WtMFIwP0DgP9vnJPw1URA+4MJ/S74NXBI4IR6HAEKGV8zTXX2MUXX+yqOfqFOwfO/PrXvz6s5HKHDwy+7DUjgPWeOmG8s9j7aoR8e4MdLzdSmqrRMQYfNkKgZyrtsTem/fU54Q7DxEKiPC2HHAQUjEBvGQFg92wF3vATShxGg7+9I3986D3Bv3vXCPQ2y63HRkc890Pbdw1ybxTszH2fjZbHgg8oGIFgBIIRCEYgGIEP4wj0WeH+YZzMoM/BCAQjEIxAMALBCDACfQ6WP9K07ldEffnLL1u9jqfFN8bpTYpuanNbnGDTXOWu1n2wympXLHewC7BTmg6zoQJT2fPP2wFVoSIilkpN2WedZck6w5sKTWUvvGDNFRUu55WUGO7pKTrQ2Gh1a9ZYxdzXhBXprcoWcO082ACwDNqbrhOL4rKydd1c9V9HEwouThpcaNRJrlm82BoUlEh/++skq1S1H58SFbiq3llgdatW6SCMeCMimAIWHBbRE7S3pMQqXptnTXtKXdfcvPmzITQX5BanqipYtfrQuGOHm994HU+ZNm2qKw3K5yA6zDvzxfz013jUffCBVb37rqswxklOfJ6oeQ4oGIFgBIIROFZH4EMn3DljeK9yMjd973vWLyXFcs85xx36QPF/BAaCrVqMnnzVuMwMq3j9dSvXIRA5qjqVo3SXuLRUJzC3/PjHdkD3D/unf7I4Fa6g3jJFLBCK2++4w+U95ilwqkdJQmtfVZXtuPceq9u0yTIk7HLUBuIQEGrNpaVWs2yZDjwodmUSm3bttJLf/96S1NeR//EfLsoX/1Hpk09azerVln/uuZaFAKdvEuL94+Os8vV5Ou6yxkZ+7/vSFHougAalrFJ1nHcq1REFi3kjQhkFhtOYat9/381b0de/bgf26lQuXddYVmaDVWgi+5yzrUn9r12+3B1skTZtuhV99V9ddSkUm7j0DGtYt16pTPNs8E03W38FZAZ0bI4Ax5FWar82qRwoexLllj3fSvosTeeSZyrC218itWHDBit/5RWnvLKeUGw51Yx89QRlMBAwxvGtkdJ+KdqVr73mlG3WKAer8Bxq0ScOGuQe06KwvmZN2pccFYoSna5iOCjg0RBKvTNYtOcxVOBjTvnVOz3iEJc85eInFha6ceFzSuVWzptn1e+8Y83iG7QxeeRI11f4CG11R7Z6D4ngd83SpVb11luHjArtrxzt1RQdrQ1voa0YQPBZ9mmCxoKiP52tC1CjDKlK9cPxcfrNvPv6jyGWI36WpqOaW+MDNC8cTVuuVDYMM+aAccJYa9qzpyWtUTw0mkBBDLvSxx+3ZtWzcMajnkl5YsbSe2/Ne+9Zhcad9cl8UdWPU/TcvyMY40gv+dAJ9zgJZBZTtSZ1u/Lhm3bvtgLlabqNrsXA5Ox+9FFr1IZDOA+UcGDjsCgRJgjwPB0awOSU6Yf73L2aKDZl8vDhziqkWpETPpHORBdcxyJM1UIqVJ70ep3Y1KgFiiVLBS027n5tJjYBykvCwIFuHNzC1kamVCYLm6MK88UkalB+9LzkoiKHUNBv7kkSc6BmdhqpH/q+pwhLm3mqlXJSK/SAsR702c86pQPmieBmo8LUUEiqxWR2PfCA+z5R7U7UudJ5ysOtfPttXb7PMVp3cpPmLSE3RwpDoSsbyjV98TSrnpqno/0eGGrFq6/aLp3WlqC9iRLoGKfWCOu/SvOPIoiQS9f37OvSf/zDtt95pyUI5cmZc75b403iA+yNCglomC9CLxrhzt5AmNeopkGpnpOodw3713+1/uI/HrGGOWxm+113OQGQpZPWPAHgXRPRb70LJLJYinqzECv4Vur48S3P0r7nxLJaCZQU9SFB9T0QsrVL37ctP/6RE2q5uj7rjDPc3uEM+g3iHS4CXqhdtMKdMadPW3XsK8bEkH/+Z6coIVwdqa3xCnbe/bOfOaV82De/GVufQwdG87v9D3+wOhkumVLEEOReoBuKSukTTzhBSuEZjLF91TVW/Iuf6/N/6JS3891Jb/2k0DVs2qjPf+H4zHitCZSSaIwYjCAUlpLvftdqNO65MgqzNbZ+wR2vdMl6GU87JWeGffWr3WZMfOiEO4MMsy/SoLIhyiUQSnRE48if/sSdu8yGY7Hvl/bO3+mqFZymjVKryahbvUa1g493GyRX9aTRQNFSB376026p7aur16JYrpKEIx1s3ZPCzzVAfUMDpv0NmzZb8f/8yrZpk6VOmNDiHtBGpz/9k1MkmPtbEtC0NEoYW5W0XmB2NmfmzJMcQ6xTnxt0pCP3Y/1gYXCsJZo4i7gniY2KZTPkS7fYxu9913aJIaeOn2AFn/6UplTWmJQaIPYE1TZAAeFUrj2PPe6QChQ4rKU09YNnlIv5165cqVO7TnZd2Lt9u/q2W99PdP33b8Se7GPwrs6PAArowE99ylnMNRJUCGSKrDghhaBTyqFzR+FW079h7pt/9lNLl0AYKhQuxROKWu9ZYsybf/hDpwCAHEVD7H3W5KAbbnRrcJ+yIZKkKCM0PWKvYgCkyTocfP31Llc6ln3Fu6iUBiq38+GHnYGCAZOMYBKBXmy7/ffOMt2vvxulvK//1r9Zs5T/EUoZBsVwSofGAwUD1xTIF+hDtITSNEiHp6Boc2Ic+w7jx+OF/IafIGALPnGdLNqzDIOrs5Sq+Rui+Vv/7//u+DpKA0fyOmVJc5kmFKZhw0YpMFLyZE1v+sH3hXDeayMkhAdceWWLQi8+ckDGTYb432oZZ8wZfE/2dcTEOMIf9wqZWP21r7W4AEEt1G+PkgqHqB5CnmWrYBUHzbjCP3p3V1Pc90Rd/dCj9bxGLcb5qhK1WL7VT+q83UIttHCEdo91hhZXIa266r0llqCNhuBjEhBwKAAsDASH86XLSk9BaGjxA/3Uy7eNhe+dAAUTQfjtuv8+wfeCf7TYIiU2Xw2atBjJzr/8xcrlC0eYAZ9v/Pa33UZJFhSNJXBEUntRSrBWGnfukCCba/tkhdBuPmfxIfz6JyY5f/kBMa2yp55y8HaOTrjCmsVfDTS/V/1B2+cwhObyCkHyrzulB0smGguD8523//EOK/ntb22P3tUoyJRx3fo//2O7HnvM/e1gO0+7b6eTvDNxsCDN/nFW/sLzDtpLVfuwqoBREzU+zCtjx5jWypder02WLhgWfzzQI5Yb/UiSBZN9+ulOSalZtFjC/gNXQjQqtEXMsE73lfz+dqdEoey5k8EE8aH9l7/4kphYy1zQ345otxSQeVpjrOFzxBwGiSkGFP0IsLcRTvFa69VCc7BEU0aNdsotwhRG6vaArgEWL/7VL52QQ7CzRzzXGmvIXa97QINYYzDkaMjxEq2zeiFNVToSNnnUSEudOKlVmCE4dkkYIwBx+bnnH2GdtPd+9i213euktFbK4GA/cPQoe4LvcCcmFAx0te9Zm2USvIVf+pJD71CIHa/T/qL/xNM0ynWZqn0Dz2FMIyWu5RmMWbn2GdA7ws6PhlWJRwNND5YATR7aggxG+vz2rvOUBgRyhfY4/BnEkv1M/1Hu+iUlip+NsD3PPGubZMxlS6nBcmb8mW/GAOUqEXRD80A/GINoeJ1udM8iZqdcBggxUHmXXtIiTw7OLchGsZCLwptvbil+4xP87fUvls8jn7VYnh7FPfhHKM/5Qwm4W2+91b6qQQ/9+cY3vmGvyurqCiIQLGPGDBsh4WlagJzJjBXuJkeT7AWKsTByzjrL4jUBwPNYrvjkuBYou2HHdkF3c50w2Ssrt1l9ANqOhlg8KWNGW5aETbUW/R4Jd6yKZi3U+jWrLVvPSx4xIuJHssEQlpyrnKHguT0SOsQBsOHc5tPGp5/9taDZyGny89XK5whkv08Lj40BpLZf76+S/3IfR1nKsuVz/JAwjmgoYUC+g7wpBwxE2bi1xFkF9XpnYsEANw9+zbbdZ6vNMMCCK6+wQSr7WLv0PdsmKK5B8Bewn7dBuR8rCebWLAYOg6fvjfq7QZYbY1AjJoj1znw1bNzgLCrcDVGR2pM0fJhr/97SPVameWuWnx8lAsHByVHOx6f3BdRzI8A6yJXrbLAQNfhKyf/+3qreeMNZrliJKKswfXziWLsZM2c6a/IwJq75Bd0ZoMNRcLfFQrwvZ84FFj9wkBTSF51F5z2HdduwfoNzcQHldorUVtYvMSfwiu1//rODonEzQlRQg8fUr1vnjAeEnauBL2U4lFBqgNOxsCPal6EP0L+zJdDThYJUvjFfbpBlziXCZSg0pU897cYcZaMVrg/zjGg/wngpkrWcKzSyUnx0y49+ZM1SmuGluCOcYaaH7n7oQdsn1CLv8stbXar+d9HngTfc4JT9WJAUnoXCkH/V1daoQOTdjzx6KAZB3xHHZfuFkojfxzq+/va293ev4jrUg18tKPh9+cSWadOF/iyXJr5LVlFXEYuB85jzL7vM4iSwEsIsdBgFUB1CjSAz/HUEogBXAwNZY5NVvPSSNUvoVy9Z7KBuF7QSTSO1MYHr0N6Hyi+3T4K1+Je/1Ob8uw3+whcNi9rBZlE8E0ZFpP7gz3/eEtTPeG1mBHob0r9Z9NmnnW7NGlcsWtAHtE20bdCHGo15vSzgJn1PkIlTXEKf0+ahh//DWRFioEOkqaZKo931+GO2TcwHa3rIP/+L05QPv6udT/TuJDHa/I9+1DJPnOHqOYcLgMNC46Qu4D8UJsdIZcXj72O+927aZNWypgjAIsAyeewYp+G389Z2P2YN4d8rvPEGi9da2SH/6R75e4HccNd8mGpttztIR+ELlHLg+QIxcHzO2zQvZHp4lhW+drIkYPLJWPoSaB6hEDRs3OQs4Cophqz/WsVwoLjFQlmnzLZMZWzwDLJRUKChCgXwJeTnOgQxViHibw+CAjRqqAQzhkeJeAjxNcDrnuJLwBvxROwh0EYUXY/Y37jnCEhECSAuif1BoFm05GJcLrnU9vfrb6VPP+VcBTyD5+7dsN4JNv+YR/v89q7H6h4hMDpDFvcuBbbtvP8BjXddq1GDi455gN+DSvqFK/10gXlCFohJQPmvXbEipv4zrhwJmyQ+tPvRx6xRrj+UDOKDdsvlkXvJxW1cNO31pzOf9xqfOzAIZWF/hLalQW4PxgxX3SvWAWAy61atliW51UYq+j1FmuphpHYBKSFgKyUM9gjOSjv+OG1KWZDS6MuefdaqFi5yMBMLI1/MxL9hDnteex/oPcBj+fKVsfh2CK4b+NEr3MEE0VrK3iuAv9mg+OMIDAzXLvqWedJMB2OCRmDFYOEWyK1RMe9123HfvbZHfUyUlo2rgsC2qEl9g3nx7EEK9sPVgO9zyBe+0CLY9X00hLVNAB2xDUO+8pWw7go2bTKohKx3lJWy559TOl+tZQqtwS+LIsPYwGCIr8DKP0z5iaRR9E3WGamTMK6S3/zGWU6tgXlR9i2SVwbXRDYCMHr2KEGY7C2/EojvGasWHsD8hVrt++pqndut9OmnrZ8YMgGyg+TqioVhouChAFZIcJZJoGdJ8UOpJjUTv7AL+IusS0e8CsSxQKgWcQX4fVFu/fu+WQjTPgl7lNLQPhO5XfveUtt6+++MOBQOgilSvXys0KhJwi3vskttx/33Wrl45iApuqBuuABxcYCEoHB0OWm/EetQKF/2JsUTJAwUxK4sH49I6QURhR+59eBTbhC+jbtLbevPf2aVMuJw+Y34znccguHdH81vkI88xWZtU2BvmdbRYBk3xHnB+4YpNuCw8Y/m4RFce0hti+Di7r6EsrHU30bIe2U6/b/5PClKSLi9NgPTwvSLf/5zGyDhlyur2RtsgmcICPE0bDY/llhCSqqVyiorVaBW9hlnOmiPTctxh9tuv93B1wSnONJCwQrmxCAWUyi5ADUxF6zGVtLCROMGXjsgJIAcexaCR1gb/BvBdCRtGlh4h/z3JmVxyJe/3HpiERHDBJawyCD6jBbP4Q/VBOTcfbe7ln5kzpxh/cT8SuUXB9bEjeFtSKBnrAJ8fKHEBkL4ovUC6XsEoyHOAYuBVJgaKUt+wtdfqfcQ49Ae8WzqDFQveNdBZ37Ym/v8mjYpc5lA82JUu+5/UNb6ZjHTWS6SmPz9Cr2L+QSipF2ONG+0DUUn1FJj/EEA8Bcyt36CgZM+2U8WY63mCK3fUxawnGgXVhuxAAH1zAiw1jmpLXXCRBt8441toHWYe1ymIGnFb4C6ca1HGBZEmyPcXICmFFpccyi3MZGeB0xN4FyVajWwh3F3IUxZv11twVa+Pl+xHw02VBA1gWQeX6PtcVqnuONY26xnP4HuDbj245Ym/oNgcEF5YxQMJh4RC6F85557njVqfEkzZH+zr4jMdxlGsTw0gnvYm2Q6DBXfI/DZbxyh1HDmOq5VouhdmuLBZ8Lbss88QwHJlziFHxQkS26ZWPuPgQF6F6e1tkOnQe7TnMBL06ZP01qUkeRXLCLoV7SX9BrhDhS2R7DQ1+UzIhjuekWPhv7cqA36pAK9Ok16FzBJ8U9/KnhI8KngO8/HzoKHCe8UjMfmg5hc/FgZs0+2GllnWGhsVoSVy1+0flYmJoKf2wt6c8Jbwqbs6WdaISmv3Y7pyN+35qbP2/Y//cn7WIy/RQiwAYZ++SsS/GrjL3/RkoOqqxASRLC7aF8J3fYIeK30b39zFnjRbd90wsu7Fphth1IAnZ/64Ie0GWsCi7hKgit18pSWgENZvgjBasGZQHmZih72iCA9gtPwWfoJZYXc+dUK1iHidLOiUT1BCFMjbiFbgUto7tu14OmrR8wJfSOYJxzRfxQbUp0GXHO1fIazW2E1p0jJQgDq1HQ4gmm6XGUx5eqVKzSPcSrgM9W5TvC7Mhb1cq/gdiF4xpHWBpA9QqERf91BIjCId2/67vdszRe/2II+aB14BMRfI20/T8GU/fv3c5G4CHSIe13+rxRG+hBQ94+AC1YT/AkUn69oaC9Yljc3KFCVuU9ULEj/rEyrlZLvrVGvZex5Z/WK4WPh8QOzxh2HYAbeDSXeydpFWXAQrO8CYkByzjzLlIFue557zuVCp4wb72JDPCUQdx+pd60Qru/+SP+Ed+24809K+7zUpWB5kegYLOzVxEEDLUF8i1QsrHO/kYCFjyB0SIb67Vn3KM3sW/hDKDFuxLTAT0IVV8aLsQei3yO+vfP++11aGf5/r12MGfuKeQq9P/RdkfybgNZNsrYTpZDhNyc42htf9iCIDby8Wb9R0kP3I/2PV30T7kEJID2ONmKkuT4elAleWwjggw9iLHFdKBGzkS2+SWpuqdyRKDn44vslJrVeSuyRK4wW8uzWC2L8IzaVLMaXHek2DtbI0IBivfN3KPEZJ751lpqktRJsUTH3VWnjg5z1joVLtTaEE1Z7BgtQbfEIizp3zhyX/pYua5A0MhYv0Ev6cdOdXw8/taeN8R0WOEch+uFAngfjIKAnYUCBS7dw78BilGW5U+kZ+Zdd7jTIAxJSpLakyz89VEGGzr8r+BeFwq+Nem3kt7NsJeRKfvc7pfdMs1333ucW3YEDKvaiiHe3oJv2Cq78eOtt9DPj+BMsZfgIWdVZEvTKCNDixlIhCAX4MF3aph+eIxqUNA6vvzwMNITNDlMcrxQ8YO+dEuBsXhSDckHjWEUj/uu/nIDeJMFfooC45JGjNB5KVZOPnzEL1zc2DqlNwN4gIdWK+GezwkTZ0OS+w6xIKeoXd3BZ611AgC6wThZ/muaJvpIyhz8+Wc8gC4G/PQZAf9iQzLG/HaA4WBvD/u02N4ZY/LyfgMT6dVJaXnzBuSwGyFqizyXqP8xsmIJAXTqWmBxtbVUiWkc/+KM7RgB3Gb7j/CuukJBT4NJB6xMhV/rXvzrBnnX6GVYuYVotBbPmPc2lLOvD5+egpniwkTB4ECuOdfUUeb5i3+3WXt0tpZq96niB1p9HCM6cC+YomExCTkoH626AfLKJgo09Yu9USIgSf+Pfa973R/qN4lEiBJE6D7kqWOMi1A+2AaUZvkZaYNbsU1yONe42kIM27xIf1GZo0Y+1XqEmWdzlCspFIffHkCCQQT5BqYgAL9JaJxaG/e8RRXkI3KOWAFH6w267rcXY8I1NhTJ6UqdMdopOnJSKWAkeQXuwxovkrnNIy8H3oKiTrcPcFMhFWaE53KUaBIwH8Rmt+9+9/NC8uX9qHMo1Vv00ps6FclA2oewU//wXKp7ztjWJ94zRqY4UwPHWGveyngaKJ5UrE2aDCoVRHTRT7knkg0cE+e6REZgjvh5NTr13f3u/e41w93zu3xXDJ6q6PeosLM8mJK+7RAITK32LhKBn6cF8WSBorvnKFfdPOJ/B9Ml5dwUSDk4OjJugPBY/C9kj/LhERaLVDlaxFX+KFRPLJiFSHC0foYgmvVF9Z8MMksaJMpEsHx+BbsX/82st2AOuCAsBL/vr69yC8Qsf3osWWvXmW7ZRvqY6MSGq1O165mmvSS2apfqYK4vXD4vBeBCuBPTB/Ag0gegbCzFdDIC+ewvSSzODYQBf0n+I55COg1+e9rPhQTNQpnAR7BRigO8SqBNtHgh7txQR+jFYvnjmpu6Dla4d5LD7ifEpFuMqFfPrpz5UItgPEqgPY8jc+BkuXzPuDpoX48xQAB5zSj8Q+uT1E/yIVeURfliUEaynnPPn6LoR7ivGIk19gvYqQyJj5gyXG43GvlXz49AWBUMyr/j0YYvbpaixpmC0oD0wbXzxhwsQ99jgf100AgixbUKPgF5dRPziJXqylECt7frVa+QyWmZFEjIZJ89yMS2bJRBK/vC/zqptW1JZec/ciUWleYQQVPjJQwPgsPBQDlhboXC3u1H/S9U+4v5qBegBl6PU9os/JMxwDRUpP9vta5/w8+7v6DfrFiQSfoOw2i7lEqLtxN5Q24GULAT+4C/cLIG8wnbIBcc7B8pHz/p2lBDv+MT+xkOV/Wj3cMXJwAP9hNJPcCo55cVKa90tyJmA2xSfcGecULDK2LdxcrsK6vYbTfCMoV/7qhOIoWPqf1ckf+NShLdTNIbAVjEkd9u+6pYUWIwC+k8qL+tih1KZN8vQGKkf4jP8/B4J5M07wnrED37g0F3PLcmD90rpybvsIzbk1q/YqutvsHIFVmMM+YU712EUko4LzxqpscBI8xO1RjK5rxOKjf953t+9RrjTIAR8WkjHvYZ21W/gdzSkyRIEvC8cMchUdvMTi5CNMOJ733MCz/uOiRrwsSudpe805YNfoCQA0QFHFegM71Bqefeh91PPHqHOwmChscGByieTSy9iQ+yTUCdav7Fkq3MlHPZM2jhurI2Vhnygvb7pGjRaBKyfEEiDP/dZxwA9FwXjgMIyTBWrXMCZd4MYHalylK7EdeEJdzYHDIAf4D42E3neMDQEPNXz8INDBLuNpkDIwYCm/inJzn9Pbnj69OPMxnsva/lNAFKhIv8HMpbt9A0GBZLiJ5fKqM1FfjGogEfJmsvBCuiDobTZVOpbnTTpmncXKsZgptnIES23aNxQaqhMiAVAQGX+FVc6KwXoEd8eigwigNiEsWJ2WBCOkamPNVh7YnoI+oC6bwSAOLcqShxhgpFAznPrXtDcwrCTtdbZq0DDA+UCZI5IqVwn1AXewPyhGJC6RjR9jvYhyjDoDfD03q0lWvNz3Hx7PcGPjSLJem81FrwvD/5mreWce56U/vlSLOXDl2LpEfsApAHIn6Bct47bWefePd5v7gWp2yk0ibK7NXIztPaZizQOrN1BuXlOscQlNUbrc6ssza1KAWYfOzejlAJQiWrV/ciYpUA/9qrGCygZuB//sV8RZi0zhvSLgj+MTTieirDFj8/+w2DxjASaBhJCrj/8BX4XqkBwTSREGzdJAONy2fHIIw5RbFHHdLfmHTg+T3wIvso+HCVFiPHfJRRlhax3EAeMEtYP9UvShhZZulyS8GMMLtCWPBkxrYVx9FgnI1hTGt+UMaNaqtyFEdAEEsIjmsrKlRY5p43wZ025aHoZDKTxteFFkXS8g2t6lXDvoJ1d9hULEf8bfp92iU0lZh5Kjjlrgv2aGZORMlYLd9ToNkKHRUoqGsIfy7IjYrEnKSI1EQv44LvZJG3aqX9j2aZOGO+K03iWhP+5tAt3gSdA/d+1/s3z9ePfYHzHJk0TZBT6XBQBP1LBtQh/YHlgOhZ2G+L5ooYtm52PjxxfNnUKY8CPxhVFCb+XK23LxQfb1LynrEXpCDNe+M4IcAltH7e3Uph+8ezW6FyNs0f444neDyUUBJS4BiEF6lybrxlfInEJtKKcJT9D/+VfnKXg7xuMuVU51PupjYBPHgUnoO4dAeZ1yC23OOjVraswr4sXc3cHOmlucJlRoQyLk6h6ajmAxrB/8y6/zIb/+7dcpTcUANA40udql7xnmeIhJmUuWgItGPGdbzsr3sHBvgeAFhEIRjBrqJLquyzsnyiXKOKH7Uff1fSZ8WHvI0zHCd1wga8KfuXdDnmThUn+N4INhQZliKj7MsUJUHbbL9wTsPY1hqz9+rVrZLWecggB8L0XRcrB8Yrt8SOGXMLzKf7E+Q4E9cYq3OFFY4Xsoei0N+/wWA+hQOAOV8Q6mQXszUYpBYwF7Rv+b9+y9BkqAKTrUQZQjHDDcSYB7jqP/zOOICab//u/XWwV7tSwpDEiW8nFWBRKYWLMPNLYgSShVOEyCIS7NzAx/naCzcfoI36MJiXc4LMpwikD7rOD0FDYd/jm2BN6/usOayeLgnv8i8N/A1+115aQ6w77J30LNyZ8LqEWSk5D57swbSEqtvodHb4j5ucUA7UJ9cZ/rfubtvqow7a30w7f7e3+Gfa5PC9cf3kKfQppm/tY11P9DOaHOwWhDXMKhdkPmzeeFWac2m1w8EXMIwDTBuI8ohLom1+UVRRNKjcekGvK3cv6YM609t36UYtQ1HE77VUOfKzk1bNwz/StCac4Cv6m/dGuFe51LsEwSrG/nf59wBpF6OJuc0qup6RrXPjOax9/o/THZcgl5Wuve+7Bf1co+NQU55ItVMITnv73ch++aH67veH7EgSN2Jd+CkLtDHkKfIfP8L9ffzsDTAIbRZx97IhrGAN4nv6GcEuQChyOeAaCm3ifzf/9Q4f6+OMSvHtQPvDXh8oP1hRGHApGV9PhXLur3/BhfZ422v6Gvc7vjA8O+IlDS4CwsULRsKlFf0DXREw8U+kUQDkdaegRP68TF7IZQBLwY3r59CxefN47lde5d0ux5Vx4gSsv218bhbQaTuFrl9Q3xgmBGRrB2u493fEF7VB0O33bR5S7rDksl7TJk9SuJrc5CeBD+Lt69hIMRySN1X7NNXMHRBpQN46An4FH8xruQ5DD1NsjmD0/CKIWvh/myna/aLn24HvC3NgqTMJ+d4QPQ4XmES5v/doJcgnwDsnrd5iLQDpwOSHgHJKn/eNGgHt81N64okAd0F5q40bw3Rfpn37FJdJ73HUIcn7CwOltnqNrwhGWPcrPsK9/zdbe8k+OH3rKYZvrD76nzWf8g3Fq59mHXRvlBx2s5CifFFzeZgRaILyVllA42EVXA+njF6Mu/QD5jYH+qPrG4sCP7iDxNk8I+Yc2DT5s/H3uDPIVK51fLOSqHvknqXwIdPqIcKf9RAoDXVLPmdrR5MGTp0/u7EDVEQi1bkMbCrxFvQAWOjX1EfSe7z/02u78NxHL/IA0uNQX9Q/4nQhklA6gW4S65yOMZGOi1TfXyMoXzE9gHZp6QMfmCLD2nVKrfUxAGXE1rAX87fh1iYthneCKayvejtxf92z2lHd/iIA88hO65wr2OMGxHLpSp/ROzmxgP+Dfp5ImEeCkuRJ97zJN9G/4WiSEkbIfI0H97q2KL4bMAdqoeWEsiLInxoAgSuoFkEpLMTRiBggk9iz+SPrPNfQdg62rqc8K94QjaWJdPZIhz0PQESDncuilGZMnXnD11c6nw8J3cJiYAgvhiFojz9Z1QIfDdSIamyCie0La1FX/pP1EvdIHhJvb/EIgCEYhYKRN0Bj980Fc7bUBOI+oXYIPnTVxlOYP5IHIfY6Tpd30aX+zcmOHj3DR9WxwlA4XiHcki+dgZzl8YuR//qf7V3vzRgGncOmf7Y1X8HnPjwBFT6ghgQ8W1xO57kSIF6oMNalvHKvaP0mBoR+sksCf0ZI2FWEzeWb92nVOQSaljTQrB9FHeH93XYbCgeDmmNKGDeudEOJoVfY87XRBw0IlS6XMOJcVRWOi2Lsoy/3FK119APUZ4eis8O7qUAzPpdhWvOoDNIgXgOJxuBdVRDNnnax6Fve4+AiC8SgdHhpHcaTXYQQ1yNAjiJoKp64IWhdZ8soq0qz0EaqRdsXBM79WFOinVJhmiIK+Qrs3UAFiFMkhn76nCIGApc7CINXmSFZsT7WrS96j5YNlSjAKObNdWUqzS9rXiYfAwCgahKVGLnxovYJoH836fFPR0G8Twe3bdkCTnAo3d+5cGy7f3H8pNee4jgI+o31xcH3XjIDmjIAtrE0U0Madu2TFPegYsmPKmkesvFCfbaQvd8/mfj2bn2gtwEjfE+11/nZxDjqnIJLyBWLRqqyyniWUnGCPQjgxlig29NXdq9+9jZzlrnn3YjB2KxqfAESMADffmisMnkiMmMP6xppS/92aklLk5v2wi2L7oM9Z7lhAdYI57lS+o5sM37jw3QRFMl+qqM+eFO5YeeRgkxPe27RS3/DE9qc2Ixo7kaWh4x3bA3vPXShhnPON9tsV81ateILnFHX8W6XShSNSt0aOHBnuq+Cz3jACWusIM8QPzLhx+zYHxRLZ7gm59nzLkTSfeztzfyTviOUaf7s4QRHUzlWZ6wIDySlCEoy9mVqVLTWyWcgNc+1SKBUMh1LSKWJNST508ilhm9CnLPd90nqL5a/dIgsZQR5KWEvp8n1PwsLs5QsqtO3Bv4/9EeCs9q0qe7qN2IJ2iPMTsN5ZpwH18hGQgHcUhtf08pbH3jz1uauU3dgbcRTvxNLWGDhlv7OCvZu70aeEO2PlhzvbG7u+ZmG218/g8943AsH67H1zErQoGIG+OAJ9Trj3xUkK+hSMQDACwQgEIxCMQDQjcDh2Hc3dwbXBCAQjEIxAMALBCAQj0OtGIBDuvW5KggYFIxCMQDACwQgEI9C5EQiEe+fGL7g7GIFgBIIRCEYgGIFeNwL/H7ChTF0O+XpVAAAAAElFTkSuQmCC;imageBackground=#FFCCCC;" parent="1" vertex="1">
                    <mxGeometry x="163.75" y="238" width="192.5" height="70" as="geometry"/>
                </mxCell>
                <mxCell id="45" value="in-situ training" style="rounded=1;whiteSpace=wrap;html=1;fillColor=#dae8fc;strokeColor=#6c8ebf;dashed=1;" parent="1" vertex="1">
                    <mxGeometry x="454" y="388" width="120" height="60" as="geometry"/>
                </mxCell>
            </root>
        </mxGraphModel>
    </diagram>
</mxfile>